<svg id="Capa_1" data-name="Capa 1" xmlns="http://www.w3.org/2000/svg" xmlns:xlink="http://www.w3.org/1999/xlink" viewBox="0 0 337.2 341.62"><defs><style>.cls-1{fill:none;}.cls-2{isolation:isolate;}.cls-3{fill:#02887b;}.cls-4{fill:#025e54;}.cls-5{clip-path:url(#clip-path);}.cls-6{fill:#026056;}.cls-7{fill:#036359;}.cls-8{fill:#03655b;}.cls-9{fill:#03685d;}.cls-10{fill:#046a5f;}.cls-11{fill:#046c61;}.cls-12{clip-path:url(#clip-path-2);}.cls-13{clip-path:url(#clip-path-3);}.cls-14{fill:#046b60;}.cls-15{clip-path:url(#clip-path-4);}.cls-16{clip-path:url(#clip-path-5);}.cls-17{fill:#056e63;}.cls-18{clip-path:url(#clip-path-6);}.cls-19{clip-path:url(#clip-path-7);}.cls-20{fill:#03675c;}.cls-21{clip-path:url(#clip-path-8);}.cls-22{clip-path:url(#clip-path-9);}.cls-23{clip-path:url(#clip-path-10);}.cls-24{fill:#03675d;}.cls-25{clip-path:url(#clip-path-11);}.cls-26{fill:#056f63;}.cls-27{clip-path:url(#clip-path-12);}.cls-28{clip-path:url(#clip-path-13);}.cls-29{clip-path:url(#clip-path-14);}.cls-30{clip-path:url(#clip-path-15);}.cls-31{clip-path:url(#clip-path-16);}.cls-32{clip-path:url(#clip-path-17);}.cls-33{clip-path:url(#clip-path-18);}.cls-34{clip-path:url(#clip-path-19);}.cls-35{clip-path:url(#clip-path-20);}.cls-36{clip-path:url(#clip-path-21);}</style><clipPath id="clip-path" transform="translate(-44.46 -41.32)"><path class="cls-1" d="M142.66,152.23,136.1,149c16.57-24.21,41.94-40.32,69.59-44.21l6.56,3.28C184.6,111.92,159.24,128,142.66,152.23Z"/></clipPath><clipPath id="clip-path-2" transform="translate(-44.46 -41.32)"><path class="cls-1" d="M178.41,271.91l-6.57-3.28a60.82,60.82,0,0,0,35.76,5.69,65.58,65.58,0,0,0,15.51-4.18l6.57,3.28a65.21,65.21,0,0,1-15.51,4.17A60.74,60.74,0,0,1,178.41,271.91Z"/></clipPath><clipPath id="clip-path-3" transform="translate(-44.46 -41.32)"><path class="cls-1" d="M174.39,280l-6.57-3.28a68.91,68.91,0,0,1-30.56-30.55l6.57,3.27A68.88,68.88,0,0,0,174.39,280Z"/></clipPath><clipPath id="clip-path-4" transform="translate(-44.46 -41.32)"><path class="cls-1" d="M133.6,340.88,127,337.61a136.15,136.15,0,0,0,20.48,8.22l6.57,3.28A136.31,136.31,0,0,1,133.6,340.88Z"/></clipPath><clipPath id="clip-path-5" transform="translate(-44.46 -41.32)"><path class="cls-1" d="M130.47,347.14l-6.57-3.28c-42.39-21.15-72.09-62.54-79.44-112.58L51,234.56C58.38,284.59,88.07,326,130.47,347.14Z"/></clipPath><clipPath id="clip-path-6" transform="translate(-44.46 -41.32)"><path class="cls-1" d="M236.61,376.22,230,373c36.64-9.08,69.2-32,91.67-64.51l6.57,3.28C305.8,344.24,273.24,367.15,236.61,376.22Z"/></clipPath><clipPath id="clip-path-7" transform="translate(-44.46 -41.32)"><path class="cls-1" d="M375.06,211.17l-6.57-3.27c-2.62-35.41-17.11-68.23-40.8-92.44l6.56,3.28C357.94,143,372.43,175.77,375.06,211.17Z"/></clipPath><clipPath id="clip-path-8" transform="translate(-44.46 -41.32)"><path class="cls-1" d="M91,218.47l-6.57-3.27c-3.74-50.42,21.44-100.48,64.15-127.52L155.16,91C112.46,118,87.28,168.06,91,218.47Z"/></clipPath><clipPath id="clip-path-9" transform="translate(-44.46 -41.32)"><path class="cls-1" d="M154.29,312l-6.56-3.27a101.53,101.53,0,0,0,59.57,9.59l6.57,3.28A101.58,101.58,0,0,1,154.29,312Z"/></clipPath><clipPath id="clip-path-10" transform="translate(-44.46 -41.32)"><path class="cls-1" d="M146.69,327.17l-6.56-3.27a114.89,114.89,0,0,1-35.2-27.19L111.5,300A114.81,114.81,0,0,0,146.69,327.17Z"/></clipPath><clipPath id="clip-path-11" transform="translate(-44.46 -41.32)"><path class="cls-1" d="M319.72,269.53l-6.56-3.28a120.85,120.85,0,0,0,8.69-54.36l6.57,3.28A120.77,120.77,0,0,1,319.72,269.53Z"/></clipPath><clipPath id="clip-path-12" transform="translate(-44.46 -41.32)"><path class="cls-1" d="M270.28,114.69l6.57,3.27A101.92,101.92,0,0,1,324.4,168l-6.56-3.28A101.87,101.87,0,0,0,270.28,114.69Z"/></clipPath><clipPath id="clip-path-13" transform="translate(-44.46 -41.32)"><path class="cls-1" d="M277.86,99.48l6.56,3.28a116.09,116.09,0,0,0-68.29-11l-6.57-3.28A116.21,116.21,0,0,1,277.86,99.48Z"/></clipPath><clipPath id="clip-path-14" transform="translate(-44.46 -41.32)"><path class="cls-1" d="M164.9,291.83l-6.56-3.28c.79.39,1.58.77,2.38,1.14l6.57,3.28C166.49,292.6,165.69,292.22,164.9,291.83Z"/></clipPath><clipPath id="clip-path-15" transform="translate(-44.46 -41.32)"><path class="cls-1" d="M162.68,296.3,156.11,293c-25.13-12.55-43.29-36.89-48.84-65.67l6.56,3.28C119.38,259.42,137.54,283.76,162.68,296.3Z"/></clipPath><clipPath id="clip-path-16" transform="translate(-44.46 -41.32)"><path class="cls-1" d="M221.15,316.51l-6.57-3.28c41.32-5.8,75.34-39.82,82.73-82.71l6.57,3.27C296.48,276.68,262.46,310.7,221.15,316.51Z"/></clipPath><clipPath id="clip-path-17" transform="translate(-44.46 -41.32)"><path class="cls-1" d="M314.22,212.51l-6.57-3.27c-1.57-21.16-9.64-40.23-23.34-55.15l6.56,3.28C304.57,172.29,312.65,191.35,314.22,212.51Z"/></clipPath><clipPath id="clip-path-18" transform="translate(-44.46 -41.32)"><path class="cls-1" d="M243.9,151.07l6.56,3.28a61.87,61.87,0,0,1,31.8,39.12l-6.56-3.27A62,62,0,0,0,243.9,151.07Z"/></clipPath><clipPath id="clip-path-19" transform="translate(-44.46 -41.32)"><path class="cls-1" d="M247.91,143l6.56,3.28c-1-.51-2.06-1-3.12-1.46a68.91,68.91,0,0,0-37.24-5l-6.56-3.27a68.79,68.79,0,0,1,37.23,5C245.84,142,246.88,142.5,247.91,143Z"/></clipPath><clipPath id="clip-path-20" transform="translate(-44.46 -41.32)"><path class="cls-1" d="M204.41,141.91l-6.56-3.28a72.65,72.65,0,0,1,9.7-2l6.56,3.27A74.63,74.63,0,0,0,204.41,141.91Z"/></clipPath><clipPath id="clip-path-21" transform="translate(-44.46 -41.32)"><path class="cls-1" d="M116.22,94.78l-6.57-3.28c25.7-27.35,59.46-45.18,95.1-50.18l6.56,3.27C175.68,49.6,141.91,67.42,116.22,94.78Z"/></clipPath></defs><title>SVG_js</title><g class="cls-2"><path class="cls-3" d="M212.25,108l.36,4.88c-26.28,3.7-50.4,19-66.16,42l-3.79-2.72C159.24,128,184.6,111.92,212.25,108Z" transform="translate(-44.46 -41.32)"/><polygon class="cls-4" points="102 113.63 95.43 110.35 91.64 107.64 98.21 110.92 102 113.63"/><g class="cls-2"><g class="cls-5"><g class="cls-2"><path class="cls-6" d="M142.66,152.23,136.1,149l.8-1.17,6.57,3.28-.81,1.16" transform="translate(-44.46 -41.32)"/><path class="cls-7" d="M143.47,151.07l-6.57-3.28a107.77,107.77,0,0,1,12.8-15l6.56,3.28a108.38,108.38,0,0,0-12.79,15" transform="translate(-44.46 -41.32)"/><path class="cls-8" d="M156.26,136l-6.56-3.28a105.19,105.19,0,0,1,13.11-10.89l6.56,3.28A104.89,104.89,0,0,0,156.26,136" transform="translate(-44.46 -41.32)"/><path class="cls-9" d="M169.37,125.14l-6.56-3.28a101.79,101.79,0,0,1,14.56-8.52l6.57,3.28a102.44,102.44,0,0,0-14.57,8.52" transform="translate(-44.46 -41.32)"/><path class="cls-10" d="M183.94,116.62l-6.57-3.28a98.19,98.19,0,0,1,18-6.54l6.57,3.28a97.46,97.46,0,0,0-18,6.54" transform="translate(-44.46 -41.32)"/><path class="cls-11" d="M201.92,110.08l-6.57-3.28a95,95,0,0,1,10.34-2l6.56,3.28a95.28,95.28,0,0,0-10.33,2" transform="translate(-44.46 -41.32)"/></g></g></g></g><g class="cls-2"><g class="cls-2"><g class="cls-12"><g class="cls-2"><path class="cls-11" d="M178.41,271.91l-6.57-3.28a60.82,60.82,0,0,0,35.76,5.69,66.56,66.56,0,0,0,7.13-1.41l6.57,3.27a64.18,64.18,0,0,1-7.13,1.41,60.74,60.74,0,0,1-35.76-5.68" transform="translate(-44.46 -41.32)"/><path class="cls-10" d="M221.3,276.18l-6.57-3.27a65.24,65.24,0,0,0,8.38-2.77l6.57,3.28a66.23,66.23,0,0,1-8.38,2.76" transform="translate(-44.46 -41.32)"/></g></g></g><path class="cls-3" d="M151.38,244.89a60.27,60.27,0,0,0,62.79,32.7,65.21,65.21,0,0,0,15.51-4.17l2.67,8.25a73.61,73.61,0,0,1-17.53,4.72,68.13,68.13,0,0,1-71-37Z" transform="translate(-44.46 -41.32)"/><g class="cls-2"><g class="cls-13"><g class="cls-2"><path class="cls-6" d="M174.39,280l-6.57-3.28a68.91,68.91,0,0,1-30.56-30.55l6.57,3.27A68.88,68.88,0,0,0,174.39,280" transform="translate(-44.46 -41.32)"/></g></g></g><polygon class="cls-14" points="99.37 208.1 92.81 204.82 100.36 200.3 106.92 203.58 99.37 208.1"/></g><g class="cls-2"><g class="cls-2"><g class="cls-15"><g class="cls-2"><path class="cls-11" d="M133.6,340.88,127,337.61a136.15,136.15,0,0,0,20.48,8.22l6.57,3.28a136.31,136.31,0,0,1-20.49-8.23" transform="translate(-44.46 -41.32)"/></g></g></g><g class="cls-2"><g class="cls-16"><g class="cls-2"><path class="cls-6" d="M130.47,347.14l-6.57-3.28c-42.39-21.15-72.09-62.54-79.44-112.58L51,234.56c7.36,50,37,91.42,79.45,112.58" transform="translate(-44.46 -41.32)"/></g></g></g><path class="cls-3" d="M57.56,233.13c8.17,55.59,45.16,100,96.53,116l-2.22,6.62C98.21,339.08,59.56,292.64,51,234.56Z" transform="translate(-44.46 -41.32)"/><polygon class="cls-17" points="6.57 193.24 0 189.97 6.54 188.54 13.11 191.82 6.57 193.24"/></g><g class="cls-2"><path class="cls-3" d="M328.28,311.72l5.28,3.82c-23.49,34-57.5,57.91-95.78,67.4l-1.17-6.72C273.24,367.15,305.8,344.24,328.28,311.72Z" transform="translate(-44.46 -41.32)"/><polygon class="cls-4" points="193.32 341.63 186.75 338.35 185.59 331.63 192.15 334.91 193.32 341.63"/><g class="cls-2"><g class="cls-18"><g class="cls-2"><path class="cls-11" d="M236.61,376.22,230,373l1.13-.29,6.56,3.28-1.12.28" transform="translate(-44.46 -41.32)"/><path class="cls-10" d="M237.73,375.94l-6.56-3.28a149.84,149.84,0,0,0,27.58-10l6.57,3.28a150.94,150.94,0,0,1-27.59,10" transform="translate(-44.46 -41.32)"/><path class="cls-9" d="M265.32,365.91l-6.57-3.28a156.12,156.12,0,0,0,22.25-13l6.56,3.28a156,156,0,0,1-22.24,13" transform="translate(-44.46 -41.32)"/><path class="cls-8" d="M287.56,352.9,281,349.62a161.31,161.31,0,0,0,20.08-16.69l6.57,3.28a160.67,160.67,0,0,1-20.09,16.69" transform="translate(-44.46 -41.32)"/><path class="cls-7" d="M307.65,336.21l-6.57-3.28a166.8,166.8,0,0,0,19.78-23.27l6.57,3.28a168.16,168.16,0,0,1-19.78,23.27" transform="translate(-44.46 -41.32)"/><path class="cls-6" d="M327.43,312.94l-6.57-3.28c.29-.4.57-.81.85-1.22l6.57,3.28-.85,1.22" transform="translate(-44.46 -41.32)"/></g></g></g></g><g class="cls-2"><path class="cls-3" d="M339,113.67c24.75,25.3,39.89,59.59,42.63,96.58l-6.59.92c-2.63-35.4-17.12-68.22-40.81-92.43Z" transform="translate(-44.46 -41.32)"/><g class="cls-2"><g class="cls-19"><g class="cls-2"><path class="cls-6" d="M375.06,211.17l-6.57-3.27c-2.62-35.41-17.11-68.23-40.8-92.44l6.56,3.28c23.69,24.21,38.18,57,40.81,92.43" transform="translate(-44.46 -41.32)"/></g></g></g><polygon class="cls-20" points="289.8 77.42 283.23 74.15 287.99 69.08 294.56 72.35 289.8 77.42"/></g><g class="cls-2"><path class="cls-3" d="M155.16,91l7.73,14.2C125.7,128.72,103.77,172.31,107,216.22l-16,2.25C87.28,168.06,112.46,118,155.16,91Z" transform="translate(-44.46 -41.32)"/><g class="cls-2"><g class="cls-21"><g class="cls-2"><path class="cls-6" d="M91,218.47l-6.57-3.27a140,140,0,0,1,25.4-90.45l6.56,3.27A140,140,0,0,0,91,218.47" transform="translate(-44.46 -41.32)"/><path class="cls-7" d="M116.41,128l-6.56-3.27a139.26,139.26,0,0,1,16.57-19.5l6.56,3.28A139.85,139.85,0,0,0,116.41,128" transform="translate(-44.46 -41.32)"/><path class="cls-8" d="M133,108.53l-6.56-3.28a134.9,134.9,0,0,1,16.94-14.08l6.57,3.28a135.72,135.72,0,0,0-17,14.08" transform="translate(-44.46 -41.32)"/><path class="cls-9" d="M149.93,94.45l-6.57-3.28c1.72-1.2,3.46-2.36,5.24-3.49L155.16,91c-1.77,1.12-3.52,2.29-5.23,3.49" transform="translate(-44.46 -41.32)"/></g></g></g></g><g class="cls-2"><g class="cls-2"><g class="cls-22"><g class="cls-2"><path class="cls-11" d="M154.29,312l-6.56-3.27a101.53,101.53,0,0,0,59.57,9.59l6.57,3.28a101.58,101.58,0,0,1-59.58-9.6" transform="translate(-44.46 -41.32)"/></g></g></g><path class="cls-3" d="M123.63,288.29a100.79,100.79,0,0,0,90.24,33.28l1.23,16.62A115.68,115.68,0,0,1,111.5,300Z" transform="translate(-44.46 -41.32)"/><g class="cls-2"><g class="cls-23"><g class="cls-2"><path class="cls-6" d="M146.69,327.17l-6.56-3.27a114.89,114.89,0,0,1-35.2-27.19L111.5,300a114.81,114.81,0,0,0,35.19,27.19" transform="translate(-44.46 -41.32)"/></g></g></g><polygon class="cls-24" points="67.04 258.67 60.48 255.39 72.61 243.7 79.17 246.97 67.04 258.67"/></g><g class="cls-2"><path class="cls-3" d="M344.43,212.92a138.77,138.77,0,0,1-10,62.42l-14.72-5.81a120.77,120.77,0,0,0,8.7-54.36Z" transform="translate(-44.46 -41.32)"/><g class="cls-2"><g class="cls-25"><g class="cls-2"><path class="cls-6" d="M319.72,269.53l-6.56-3.28a120.85,120.85,0,0,0,8.69-54.36l6.57,3.28a120.77,120.77,0,0,1-8.7,54.36" transform="translate(-44.46 -41.32)"/></g></g></g><polygon class="cls-26" points="283.96 173.85 277.39 170.58 293.4 168.33 299.97 171.6 283.96 173.85"/></g><g class="cls-2"><g class="cls-2"><g class="cls-27"><g class="cls-2"><path class="cls-6" d="M324.4,168l-6.56-3.28a101.87,101.87,0,0,0-47.56-50.06l6.57,3.27A101.92,101.92,0,0,1,324.4,168" transform="translate(-44.46 -41.32)"/></g></g></g><path class="cls-3" d="M216.13,91.8c52-7.31,101.41,20.2,122.9,68.45L324.4,168c-18.71-42-61.73-66-107-59.61Z" transform="translate(-44.46 -41.32)"/><g class="cls-2"><g class="cls-28"><g class="cls-2"><path class="cls-11" d="M216.13,91.8l-6.57-3.28a116.21,116.21,0,0,1,68.3,11l6.56,3.28a116.09,116.09,0,0,0-68.29-11" transform="translate(-44.46 -41.32)"/></g></g></g><polygon class="cls-4" points="172.9 67.1 166.34 63.83 165.1 47.21 171.67 50.48 172.9 67.1"/></g><g class="cls-2"><g class="cls-2"><g class="cls-29"><g class="cls-2"><path class="cls-11" d="M164.9,291.83l-6.56-3.28c.79.39,1.58.77,2.38,1.14l6.57,3.28c-.8-.37-1.6-.75-2.39-1.14" transform="translate(-44.46 -41.32)"/></g></g></g><path class="cls-3" d="M118.47,229.4c5.44,28.26,23.69,52,48.82,63.57l-2.1,4.54c-26.44-12.15-45.63-37.14-51.36-66.88Z" transform="translate(-44.46 -41.32)"/><g class="cls-2"><g class="cls-30"><g class="cls-2"><path class="cls-6" d="M162.68,296.3,156.11,293c-25.13-12.55-43.29-36.89-48.84-65.67l6.56,3.27c5.55,28.79,23.71,53.13,48.85,65.67" transform="translate(-44.46 -41.32)"/></g></g></g><polygon class="cls-17" points="69.37 189.32 62.81 186.04 67.44 184.81 74.01 188.08 69.37 189.32"/></g><g class="cls-2"><polygon class="cls-17" points="259.42 192.48 252.86 189.2 257.51 189.8 264.07 193.08 259.42 192.48"/><path class="cls-3" d="M303.88,233.79l4.65.6c-7.79,45.12-43.57,80.9-87,87l-.36-4.88C262.46,310.7,296.48,276.68,303.88,233.79Z" transform="translate(-44.46 -41.32)"/><polygon class="cls-4" points="177.05 280.08 170.49 276.8 170.13 271.92 176.69 275.2 177.05 280.08"/><g class="cls-2"><g class="cls-31"><g class="cls-2"><path class="cls-11" d="M221.15,316.51l-6.57-3.28a89.69,89.69,0,0,0,9.82-1.93l6.56,3.27a92,92,0,0,1-9.81,1.94" transform="translate(-44.46 -41.32)"/><path class="cls-10" d="M231,314.57l-6.56-3.27a92.93,92.93,0,0,0,17.08-6.21l6.57,3.28a93.73,93.73,0,0,1-17.09,6.2" transform="translate(-44.46 -41.32)"/><path class="cls-9" d="M248.05,308.37l-6.57-3.28A97.2,97.2,0,0,0,255.35,297l6.56,3.28a98,98,0,0,1-13.86,8.11" transform="translate(-44.46 -41.32)"/><path class="cls-8" d="M261.91,300.26,255.35,297a100.75,100.75,0,0,0,12.51-10.4l6.56,3.28a100,100,0,0,1-12.51,10.4" transform="translate(-44.46 -41.32)"/><path class="cls-7" d="M274.42,289.86l-6.56-3.28A103,103,0,0,0,280,272.27l6.57,3.27a102.5,102.5,0,0,1-12.18,14.32" transform="translate(-44.46 -41.32)"/><path class="cls-6" d="M286.6,275.54,280,272.27a102.92,102.92,0,0,0,17.28-41.75l6.57,3.27a103,103,0,0,1-17.28,41.75" transform="translate(-44.46 -41.32)"/></g></g></g></g><g class="cls-2"><path class="cls-3" d="M294.37,153.85c14.42,15.7,22.9,35.75,24.55,58l-4.7.66c-1.57-21.16-9.65-40.22-23.35-55.14Z" transform="translate(-44.46 -41.32)"/><g class="cls-2"><g class="cls-32"><g class="cls-2"><path class="cls-6" d="M314.22,212.51l-6.57-3.27c-1.57-21.16-9.64-40.23-23.34-55.15l6.56,3.28c13.7,14.92,21.78,34,23.35,55.14" transform="translate(-44.46 -41.32)"/></g></g></g><polygon class="cls-20" points="246.42 116.05 239.85 112.78 243.35 109.26 249.92 112.54 246.42 116.05"/></g><g class="cls-2"><g class="cls-2"><g class="cls-33"><g class="cls-2"><path class="cls-6" d="M282.26,193.47l-6.56-3.27a62,62,0,0,0-31.8-39.13l6.56,3.28a61.87,61.87,0,0,1,31.8,39.12" transform="translate(-44.46 -41.32)"/></g></g></g><g class="cls-2"><g class="cls-34"><g class="cls-2"><path class="cls-11" d="M214.11,139.87l-6.56-3.27a68.79,68.79,0,0,1,37.23,5c1.06.46,2.1.95,3.13,1.46l6.56,3.28c-1-.51-2.06-1-3.12-1.46a68.91,68.91,0,0,0-37.24-5" transform="translate(-44.46 -41.32)"/></g></g></g><path class="cls-3" d="M214.11,139.87a68.91,68.91,0,0,1,37.24,5c19.06,8.32,33.3,25,39.08,45.71l-8.17,2.93a61.74,61.74,0,0,0-34.57-40.42,61,61,0,0,0-32.93-4.38,68.27,68.27,0,0,0-8.59,1.8l-1.76-8.56A74.63,74.63,0,0,1,214.11,139.87Z" transform="translate(-44.46 -41.32)"/><polygon class="cls-4" points="161.71 109.16 155.15 105.88 153.39 97.32 159.96 100.59 161.71 109.16"/><g class="cls-2"><g class="cls-35"><g class="cls-2"><path class="cls-10" d="M204.41,141.91l-6.56-3.28,1.64-.44,6.57,3.28-1.65.44" transform="translate(-44.46 -41.32)"/><path class="cls-11" d="M206.06,141.47l-6.57-3.28a73.59,73.59,0,0,1,8.06-1.59l6.56,3.27a73.92,73.92,0,0,0-8.05,1.6" transform="translate(-44.46 -41.32)"/></g></g></g></g><g class="cls-2"><path class="cls-3" d="M211.31,44.59l.51,6.85c-34.11,4.79-66.43,21.85-91,48l-4.58-4.69C141.91,67.42,175.68,49.6,211.31,44.59Z" transform="translate(-44.46 -41.32)"/><polygon class="cls-4" points="76.35 58.15 69.78 54.88 65.19 50.19 71.76 53.46 76.35 58.15"/><g class="cls-2"><g class="cls-36"><g class="cls-2"><path class="cls-7" d="M116.22,94.78l-6.57-3.28c1.66-1.77,3.36-3.49,5.08-5.18l6.57,3.27q-2.6,2.53-5.08,5.19" transform="translate(-44.46 -41.32)"/><path class="cls-8" d="M121.3,89.59l-6.57-3.27a168.5,168.5,0,0,1,21-17.44l6.57,3.27a168.65,168.65,0,0,0-21,17.44" transform="translate(-44.46 -41.32)"/><path class="cls-9" d="M142.3,72.15l-6.57-3.27a164.62,164.62,0,0,1,23.49-13.74l6.57,3.27A164.46,164.46,0,0,0,142.3,72.15" transform="translate(-44.46 -41.32)"/><path class="cls-10" d="M165.79,58.41l-6.57-3.27A157.83,157.83,0,0,1,188.17,44.6l6.56,3.27a159.22,159.22,0,0,0-28.94,10.54" transform="translate(-44.46 -41.32)"/><path class="cls-11" d="M194.73,47.87l-6.56-3.27a150.9,150.9,0,0,1,16.58-3.28l6.56,3.27a153.76,153.76,0,0,0-16.58,3.28" transform="translate(-44.46 -41.32)"/></g></g></g></g></svg>