<?xml version="1.0" encoding="utf-8"?>
<!-- Generator: Adobe Illustrator 22.1.0, SVG Export Plug-In . SVG Version: 6.00 Build 0)  -->
<svg version="1.1" id="Capa_1" xmlns="http://www.w3.org/2000/svg" xmlns:xlink="http://www.w3.org/1999/xlink" x="0px" y="0px"
	 viewBox="0 0 425.2 425.2" style="enable-background:new 0 0 425.2 425.2;" xml:space="preserve">
<style type="text/css">
	.st0{fill:none;stroke:#06A083;stroke-width:2;stroke-miterlimit:10;}
</style>
<path class="st0" d="M332.1,223.1c-0.1,1.5-0.3,3.1-0.5,4.6C331.8,226.1,332,224.6,332.1,223.1z"/>
<path class="st0" d="M331.5,228.8c-0.2,1.4-0.4,2.8-0.6,4.2C331.1,231.6,331.3,230.2,331.5,228.8z"/>
<path class="st0" d="M299.2,255.2c-0.3,0.7-0.6,1.3-0.9,1.9C298.6,256.5,298.9,255.9,299.2,255.2z"/>
<path class="st0" d="M293.9,265.8c-0.4,0.6-0.7,1.2-1.1,1.8C293.2,267,293.6,266.4,293.9,265.8z"/>
<path class="st0" d="M297.6,258.8c-0.3,0.6-0.6,1.3-0.9,1.9C297,260.1,297.3,259.5,297.6,258.8z"/>
<path class="st0" d="M295.8,262.4c-0.3,0.6-0.7,1.2-1,1.9C295.2,263.6,295.5,263,295.8,262.4z"/>
<path class="st0" d="M329.8,239c-0.3,1.3-0.6,2.7-0.9,4C329.3,241.7,329.6,240.3,329.8,239z"/>
<path class="st0" d="M330.9,233.4c-0.2,1.5-0.5,3-0.8,4.5C330.4,236.4,330.6,234.9,330.9,233.4z"/>
<path class="st0" d="M323.6,260c-0.3,0.7-0.6,1.4-0.9,2.1C323.1,261.4,323.4,260.7,323.6,260z"/>
<path class="st0" d="M305,237.1c-0.3,1.5-0.7,3-1.1,4.5C304.3,240.1,304.7,238.7,305,237.1z"/>
<path class="st0" d="M332.5,212.6c0,1.5,0,3.1-0.1,4.6C332.5,215.7,332.5,214.1,332.5,212.6z"/>
<path class="st0" d="M332.4,218.4c-0.1,1.5-0.1,2.9-0.3,4.4C332.2,221.3,332.3,219.9,332.4,218.4z"/>
<path class="st0" d="M303.5,243c-0.3,1-0.6,2-0.9,3C302.9,245,303.2,244,303.5,243z"/>
<path class="st0" d="M302,247.7c-0.2,0.7-0.5,1.4-0.7,2C301.6,249.1,301.8,248.4,302,247.7z"/>
<path class="st0" d="M256.1,103.4c-3.6-1.3-7.3-2.4-11-3.3C248.8,100.9,252.5,102,256.1,103.4z"/>
<path class="st0" d="M300.7,251.5c-0.3,0.7-0.5,1.3-0.8,2C300.2,252.8,300.4,252.2,300.7,251.5z"/>
<path class="st0" d="M267.1,295.4c-0.2,0.1-0.4,0.3-0.6,0.4C266.7,295.7,266.9,295.6,267.1,295.4z"/>
<path class="st0" d="M285.5,278.2c-0.1,0.2-0.3,0.4-0.4,0.5C285.2,278.5,285.4,278.4,285.5,278.2z"/>
<path class="st0" d="M283,281.2c-0.1,0.2-0.3,0.3-0.4,0.5C282.7,281.5,282.9,281.3,283,281.2z"/>
<path class="st0" d="M261.1,299.2c-0.2,0.1-0.4,0.2-0.6,0.4C260.7,299.4,260.9,299.3,261.1,299.2z"/>
<path class="st0" d="M258.1,300.8c-0.1,0.1-0.3,0.1-0.4,0.2C257.8,300.9,258,300.9,258.1,300.8z"/>
<path class="st0" d="M255,302.3c-0.2,0.1-0.4,0.2-0.7,0.3C254.5,302.5,254.7,302.4,255,302.3z"/>
<path class="st0" d="M278,286.4c-0.2,0.2-0.3,0.3-0.5,0.5C277.7,286.7,277.9,286.6,278,286.4z"/>
<path class="st0" d="M272.7,291.2c-0.2,0.1-0.4,0.3-0.5,0.4C272.4,291.5,272.5,291.3,272.7,291.2z"/>
<path class="st0" d="M280.7,283.7c-0.1,0.2-0.3,0.3-0.4,0.5C280.4,284,280.6,283.9,280.7,283.7z"/>
<path class="st0" d="M275.5,288.7c-0.2,0.1-0.3,0.3-0.5,0.4C275.2,289,275.4,288.9,275.5,288.7z"/>
<path class="st0" d="M251.7,303.7c-0.1,0-0.2,0.1-0.4,0.1C251.5,303.8,251.6,303.8,251.7,303.7z"/>
<path class="st0" d="M264.2,297.3c-0.1,0.1-0.3,0.2-0.4,0.3C263.9,297.5,264.1,297.4,264.2,297.3z"/>
<path class="st0" d="M228.1,309c-0.3,0-0.5,0-0.8,0C227.6,309,227.8,309,228.1,309z"/>
<path class="st0" d="M292,269.1c-0.4,0.6-0.8,1.2-1.2,1.8C291.2,270.3,291.6,269.7,292,269.1z"/>
<path class="st0" d="M231.3,308.8c0,0-0.1,0-0.1,0C231.2,308.8,231.3,308.8,231.3,308.8z"/>
<path class="st0" d="M287.6,275.5c-0.1,0.2-0.3,0.3-0.4,0.5C287.4,275.8,287.5,275.6,287.6,275.5z"/>
<path class="st0" d="M289.9,272.3c-0.4,0.6-0.8,1.2-1.2,1.8C289,273.5,289.5,272.9,289.9,272.3z"/>
<path class="st0" d="M248.5,304.9c-0.2,0.1-0.5,0.2-0.7,0.2C248.1,305.1,248.3,305,248.5,304.9z"/>
<path class="st0" d="M241.9,306.9c-0.2,0.1-0.5,0.1-0.7,0.2C241.4,307,241.6,307,241.9,306.9z"/>
<path class="st0" d="M235.1,308.3c-0.3,0-0.5,0.1-0.8,0.1C234.6,308.4,234.8,308.3,235.1,308.3z"/>
<path class="st0" d="M245.1,306c-0.1,0-0.2,0.1-0.3,0.1C244.9,306.1,245,306.1,245.1,306z"/>
<path class="st0" d="M238.3,307.7c-0.1,0-0.2,0-0.2,0C238.2,307.8,238.3,307.7,238.3,307.7z"/>
<path class="st0" d="M241.3,99.3c-5-0.9-10.2-1.4-15.4-1.4h-10l10,0C231.1,97.9,236.2,98.4,241.3,99.3z"/>
<path class="st0" d="M115.3,132.3c0.3-0.5,0.7-1,1-1.5C115.9,131.3,115.6,131.8,115.3,132.3z"/>
<path class="st0" d="M119,127.1c-0.2,0.3-0.4,0.6-0.7,0.9c0.3-0.4,0.6-0.9,1-1.3C119.2,126.8,119.1,126.9,119,127.1z"/>
<path class="st0" d="M97.7,170.1c0.4-1.3,0.8-2.6,1.2-3.9C98.5,167.5,98.1,168.8,97.7,170.1z"/>
<path class="st0" d="M125.1,119.4c0.9-1,1.7-2,2.6-2.9C126.8,117.4,126,118.4,125.1,119.4z"/>
<path class="st0" d="M122.5,122.4c0.7-0.8,1.4-1.7,2.1-2.5C123.9,120.8,123.2,121.6,122.5,122.4z"/>
<path class="st0" d="M120,125.7c0.6-0.8,1.2-1.5,1.8-2.3C121.2,124.2,120.6,125,120,125.7z"/>
<path class="st0" d="M112.5,136.6c0.3-0.5,0.6-1,0.9-1.5C113.2,135.6,112.8,136.1,112.5,136.6z"/>
<path class="st0" d="M100.6,161.3c0.2-0.5,0.4-1,0.6-1.5C101,160.3,100.8,160.8,100.6,161.3z"/>
<path class="st0" d="M98.9,166.2C98.9,166.2,98.9,166.2,98.9,166.2c0,0,0-0.1,0-0.1C99,166.1,98.9,166.1,98.9,166.2z"/>
<path class="st0" d="M104.6,151.6c0.2-0.5,0.5-1.1,0.7-1.6C105.1,150.6,104.8,151.1,104.6,151.6z"/>
<path class="st0" d="M102.5,156.5c0.2-0.6,0.5-1.1,0.7-1.7C103,155.3,102.7,155.9,102.5,156.5z"/>
<path class="st0" d="M107.1,146.5c0.2-0.3,0.3-0.7,0.5-1C107.4,145.8,107.2,146.1,107.1,146.5z"/>
<path class="st0" d="M110,141c0.2-0.4,0.4-0.7,0.6-1.1C110.4,140.2,110.2,140.6,110,141z"/>
<path class="st0" d="M147.9,99c0.9-0.6,1.9-1.2,2.8-1.8C149.7,97.8,148.8,98.4,147.9,99z"/>
<path class="st0" d="M151.7,96.5c0.8-0.5,1.6-1,2.4-1.5C153.3,95.6,152.5,96.1,151.7,96.5z"/>
<path class="st0" d="M142.3,318.1c2.7,2.3,5.4,4.4,8.2,6.4C147.7,322.5,145,320.3,142.3,318.1z"/>
<path class="st0" d="M158.6,92.6c-1.1,0.6-2.3,1.2-3.4,1.9C156.3,93.9,157.4,93.2,158.6,92.6z"/>
<path class="st0" d="M324.9,256.8c-0.2,0.7-0.5,1.3-0.7,1.9C324.4,258.1,324.6,257.4,324.9,256.8z"/>
<path class="st0" d="M128.4,115.7c0.7-0.7,1.4-1.4,2.1-2.1C129.8,114.3,129.1,115,128.4,115.7z"/>
<path class="st0" d="M326,253.5c-0.2,0.6-0.4,1.3-0.7,1.9C325.6,254.7,325.8,254.1,326,253.5z"/>
<path class="st0" d="M134.2,109.9c1-0.9,1.9-1.8,2.9-2.6C136.2,108.2,135.2,109,134.2,109.9z"/>
<path class="st0" d="M144.3,101.6c1-0.8,2.1-1.5,3.2-2.3C146.4,100.1,145.3,100.8,144.3,101.6z"/>
<path class="st0" d="M131.4,112.7c0.7-0.7,1.4-1.4,2.2-2.1C132.8,111.3,132.1,112,131.4,112.7z"/>
<path class="st0" d="M141.1,104c0.8-0.6,1.5-1.2,2.3-1.8C142.6,102.8,141.9,103.4,141.1,104z"/>
<path class="st0" d="M137.8,106.8c0.8-0.7,1.6-1.3,2.4-2C139.4,105.4,138.6,106.1,137.8,106.8z"/>
<path class="st0" d="M96.4,174.9c0.3-1.3,0.7-2.6,1.1-3.9C97.1,172.3,96.7,173.6,96.4,174.9z"/>
<path class="st0" d="M322.3,263.2c-0.5,1.1-0.9,2.1-1.4,3.2C321.4,265.3,321.9,264.3,322.3,263.2z"/>
<path class="st0" d="M327.4,249c-0.4,1.3-0.7,2.5-1.2,3.8C326.6,251.5,327,250.3,327.4,249z"/>
<path class="st0" d="M91.7,207.4c0-1.4,0.1-2.8,0.2-4.2C91.8,204.6,91.7,206,91.7,207.4z"/>
<path class="st0" d="M328.8,243.5c-0.4,1.5-0.7,2.9-1.1,4.4C328.1,246.5,328.5,245,328.8,243.5z"/>
<path class="st0" d="M91.6,212.6c0-1.4,0-2.9,0.1-4.3C91.6,209.7,91.6,211.2,91.6,212.6z"/>
<path class="st0" d="M222.6,142.2c2,0.1,3.9,0.3,5.8,0.5C226.5,142.4,224.5,142.3,222.6,142.2z"/>
<path class="st0" d="M132.1,308.2c-4.8-5.3-9.3-11.1-13.3-17.3h-10l10,0C122.8,297.1,127.3,302.9,132.1,308.2z"/>
<path class="st0" d="M142.3,318.1c-3.5-3-6.9-6.3-10.2-9.9C135.4,311.7,138.8,315,142.3,318.1z"/>
<path class="st0" d="M228.4,142.7c1.9,0.3,3.8,0.7,5.7,1.2C232.3,143.4,230.3,143,228.4,142.7z"/>
<path class="st0" d="M270,293.3c-0.1,0.1-0.3,0.2-0.4,0.3C269.7,293.5,269.9,293.4,270,293.3z"/>
<path class="st0" d="M91.9,202.5c0.1-1.3,0.2-2.5,0.3-3.8C92.1,200,92,201.2,91.9,202.5z"/>
<path class="st0" d="M220.6,142.2L220.6,142.2c0.7,0,1.3,0,2,0C221.9,142.2,221.3,142.2,220.6,142.2z"/>
<path class="st0" d="M95.3,179.2c0.3-1.2,0.6-2.4,0.9-3.6C95.9,176.8,95.6,178,95.3,179.2z"/>
<path class="st0" d="M92.3,198c0.1-1.4,0.3-2.7,0.5-4.1C92.6,195.3,92.4,196.6,92.3,198z"/>
<path class="st0" d="M94.4,183.8c0.3-1.3,0.5-2.7,0.8-4C94.9,181.1,94.6,182.5,94.4,183.8z"/>
<path class="st0" d="M93.5,188.8c0.2-1.4,0.5-2.8,0.7-4.1C93.9,186.1,93.7,187.4,93.5,188.8z"/>
<path class="st0" d="M92.9,193c0.2-1.4,0.4-2.8,0.6-4.2C93.2,190.2,93,191.6,92.9,193z"/>
<path class="st0" d="M146.1,145.9l3.3,3.3c15.9-21.1,38.9-33.1,63-33.1v-5C187,111,162.9,123.7,146.1,145.9z"/>
<polygon class="st0" points="136.1,145.9 139.4,149.2 149.4,149.2 146.1,145.9 "/>
<path class="st0" d="M136.1,145.9h10c16.7-22.1,40.9-34.8,66.3-34.8h-10C177,111,152.9,123.7,136.1,145.9z"/>
<path class="st0" d="M227.1,277.8h-10c-3.1,0.9-6.2,1.5-9.4,1.8c1.6,0.2,3.3,0.2,5,0.2C217.6,279.8,222.4,279.2,227.1,277.8z"/>
<path class="st0" d="M227.1,277.8c-4.7,1.3-9.5,2-14.4,2c-1.7,0-3.3-0.1-5-0.2c-22-2.1-41.3-18-50-41.8l-7.2,3.5
	c10.6,28.9,35,47.5,62.1,47.5c5.5,0,11-0.8,16.3-2.3L227.1,277.8z"/>
<path class="st0" d="M150.6,241.3h-10c10.6,28.9,35,47.5,62.1,47.5h10C185.5,288.8,161.1,270.2,150.6,241.3z"/>
<polygon class="st0" points="157.8,237.8 147.8,237.8 140.6,241.3 150.6,241.3 "/>
<path class="st0" d="M67.5,224.3l-6,0.5c3.9,60,35.9,112.5,83.6,137l2.5-6.4C101.8,332,71.2,281.7,67.5,224.3z"/>
<path class="st0" d="M61.5,224.8h-10c3.9,60,35.9,112.5,83.6,137h10C97.3,337.3,65.3,284.8,61.5,224.8z"/>
<polygon class="st0" points="67.5,224.3 57.5,224.3 51.5,224.8 61.5,224.8 "/>
<path class="st0" d="M240.7,368l0.6,7c35.5-4.2,68.1-23.6,91.7-54.6l-4.6-4.6C305.9,345.5,274.7,364.1,240.7,368z"/>
<polygon class="st0" points="230.7,368 231.3,375 241.3,375 240.7,368 "/>
<path class="st0" d="M328.5,315.8h-10c-22.7,29.7-53.8,48.3-87.8,52.3h10C274.7,364.1,305.9,345.5,328.5,315.8z"/>
<path class="st0" d="M345.7,108.8l-4.7,4.5c19.9,27.9,30.9,63.2,30.9,99.4h6.1C378,174.8,366.5,137.9,345.7,108.8z"/>
<path class="st0" d="M331,113.2c19.9,27.9,30.9,63.2,30.9,99.4h10c0-36.2-11-71.5-30.9-99.4H331z"/>
<polygon class="st0" points="345.7,108.8 335.7,108.8 331,113.2 341,113.2 "/>
<path class="st0" d="M154.1,95.1c-0.8,0.5-1.6,1-2.4,1.5c-0.3,0.2-0.7,0.4-1,0.6c-0.9,0.6-1.9,1.2-2.8,1.8c-0.2,0.1-0.3,0.2-0.5,0.3
	c-1.1,0.7-2.1,1.5-3.2,2.3c-0.3,0.2-0.6,0.4-0.9,0.7c-0.8,0.6-1.5,1.2-2.3,1.8c-0.3,0.3-0.7,0.5-1,0.8c-0.8,0.6-1.6,1.3-2.4,2
	c-0.2,0.2-0.4,0.4-0.6,0.5c-1,0.9-1.9,1.7-2.9,2.6c-0.2,0.2-0.5,0.4-0.7,0.7c-0.7,0.7-1.4,1.4-2.2,2.1c-0.3,0.3-0.6,0.6-0.9,0.9
	c-0.7,0.7-1.4,1.4-2.1,2.1c-0.2,0.2-0.5,0.5-0.7,0.7c-0.9,1-1.8,1.9-2.6,2.9c-0.2,0.2-0.3,0.4-0.5,0.6c-0.7,0.8-1.4,1.6-2.1,2.5
	c-0.3,0.3-0.5,0.7-0.8,1c-0.6,0.8-1.2,1.5-1.8,2.3c-0.2,0.3-0.5,0.6-0.7,0.9c-0.3,0.4-0.6,0.9-1,1.3c-0.7,0.9-1.4,1.9-2,2.8
	c-0.3,0.5-0.7,1-1,1.5c-0.6,0.9-1.2,1.9-1.8,2.8c-0.3,0.5-0.6,1-0.9,1.5c-0.7,1.1-1.3,2.2-1.9,3.2c-0.2,0.4-0.4,0.7-0.6,1.1
	c-0.8,1.5-1.6,2.9-2.4,4.4c-0.2,0.3-0.3,0.7-0.5,1c-0.6,1.2-1.2,2.4-1.7,3.6c-0.2,0.5-0.5,1.1-0.7,1.6c-0.5,1-0.9,2.1-1.4,3.1
	c-0.2,0.6-0.5,1.1-0.7,1.7c-0.4,1.1-0.9,2.2-1.3,3.3c-0.2,0.5-0.4,1-0.6,1.5c-0.6,1.6-1.1,3.1-1.7,4.7c0,0.1,0,0.1-0.1,0.2
	c0,0,0,0,0,0.1c-0.4,1.3-0.8,2.6-1.2,3.9c-0.1,0.3-0.2,0.6-0.2,0.8c-0.4,1.3-0.7,2.6-1.1,3.9c-0.1,0.2-0.1,0.4-0.2,0.7
	c-0.3,1.2-0.6,2.4-0.9,3.6c0,0.2-0.1,0.4-0.1,0.6c-0.3,1.3-0.6,2.7-0.8,4c-0.1,0.3-0.1,0.6-0.2,0.9c-0.3,1.4-0.5,2.7-0.7,4.1
	c0,0,0,0,0,0c-0.2,1.4-0.4,2.8-0.6,4.2c0,0.3-0.1,0.6-0.1,0.9c-0.2,1.4-0.3,2.7-0.5,4.1c0,0.2,0,0.5-0.1,0.7
	c-0.1,1.3-0.2,2.5-0.3,3.8c0,0.2,0,0.5,0,0.7c-0.1,1.4-0.2,2.8-0.2,4.2c0,0.3,0,0.6,0,0.9c0,1.4-0.1,2.9-0.1,4.3h14.7
	c0-44.9,22.9-85.9,58.3-104.5l-6.1-15.5c-1.1,0.6-2.3,1.2-3.4,1.9C154.8,94.7,154.5,94.9,154.1,95.1z"/>
<path class="st0" d="M91.6,212.6c0-1.4,0-2.9,0.1-4.3c0-0.3,0-0.6,0-0.9c0-1.4,0.1-2.8,0.2-4.2c0-0.2,0-0.5,0-0.7
	c0.1-1.3,0.2-2.5,0.3-3.8c0-0.2,0-0.5,0.1-0.7c0.1-1.4,0.3-2.7,0.5-4.1c0-0.3,0.1-0.6,0.1-0.9c0.2-1.4,0.4-2.8,0.6-4.2c0,0,0,0,0,0
	c0.2-1.4,0.5-2.8,0.7-4.1c0.1-0.3,0.1-0.6,0.2-0.9c0.3-1.3,0.5-2.7,0.8-4c0-0.2,0.1-0.4,0.1-0.6c0.3-1.2,0.6-2.4,0.9-3.6
	c0.1-0.2,0.1-0.4,0.2-0.7c0.3-1.3,0.7-2.6,1.1-3.9c0.1-0.3,0.2-0.6,0.2-0.8c0.4-1.3,0.8-2.6,1.2-3.9c0,0,0,0,0-0.1c0,0,0,0,0,0h-10
	c0,0,0,0,0,0c0,0,0,0,0,0.1c-0.4,1.3-0.8,2.6-1.2,3.9c-0.1,0.3-0.2,0.6-0.2,0.8c-0.4,1.3-0.7,2.6-1.1,3.9c-0.1,0.2-0.1,0.4-0.2,0.7
	c-0.3,1.2-0.6,2.4-0.9,3.6c0,0.2-0.1,0.4-0.1,0.6c-0.3,1.3-0.6,2.7-0.8,4c-0.1,0.3-0.1,0.6-0.2,0.9c-0.3,1.4-0.5,2.8-0.7,4.1
	c0,0,0,0,0,0c-0.2,1.4-0.4,2.8-0.6,4.2c0,0.3-0.1,0.6-0.1,0.9c-0.2,1.4-0.3,2.7-0.5,4.1c0,0.2,0,0.5-0.1,0.7
	c-0.1,1.3-0.2,2.5-0.3,3.8c0,0.2,0,0.5,0,0.7c-0.1,1.4-0.2,2.8-0.2,4.2c0,0.3,0,0.6,0,0.9c0,1.4-0.1,2.9-0.1,4.3H91.6z"/>
<path class="st0" d="M99,166c0.5-1.6,1.1-3.2,1.7-4.7c0.2-0.5,0.4-1,0.6-1.5c0.4-1.1,0.8-2.2,1.3-3.3c0.2-0.6,0.5-1.1,0.7-1.7
	c0.4-1.1,0.9-2.1,1.4-3.1c0.2-0.5,0.5-1.1,0.7-1.6c0.6-1.2,1.1-2.4,1.7-3.6c0.2-0.3,0.3-0.7,0.5-1c0.8-1.5,1.6-3,2.4-4.4
	c0.2-0.4,0.4-0.7,0.6-1.1c0.6-1.1,1.3-2.2,1.9-3.2c0.3-0.5,0.6-1,0.9-1.5c0.6-0.9,1.2-1.9,1.8-2.8c0.3-0.5,0.7-1,1-1.5
	c0.7-1,1.3-1.9,2-2.8c0.2-0.3,0.4-0.6,0.7-0.9h-10c-0.2,0.3-0.4,0.6-0.7,0.9c-0.7,0.9-1.4,1.9-2,2.8c-0.3,0.5-0.7,1-1,1.5
	c-0.6,0.9-1.2,1.9-1.8,2.8c-0.3,0.5-0.6,1-0.9,1.5c-0.7,1.1-1.3,2.2-1.9,3.2c-0.2,0.4-0.4,0.7-0.6,1.1c-0.8,1.5-1.6,2.9-2.4,4.4
	c-0.2,0.3-0.3,0.7-0.5,1c-0.6,1.2-1.2,2.4-1.7,3.6c-0.2,0.5-0.5,1.1-0.7,1.6c-0.5,1-0.9,2.1-1.4,3.1c-0.2,0.6-0.5,1.1-0.7,1.7
	c-0.4,1.1-0.9,2.2-1.3,3.3c-0.2,0.5-0.4,1-0.6,1.5c-0.6,1.6-1.1,3.1-1.7,4.7c0,0,0,0.1,0,0.1h10C98.9,166.1,99,166.1,99,166z"/>
<path class="st0" d="M119.3,126.6c0.2-0.3,0.5-0.6,0.7-0.9c0.6-0.8,1.2-1.5,1.8-2.3c0.3-0.3,0.5-0.7,0.8-1c0.7-0.8,1.4-1.7,2.1-2.5
	c0.2-0.2,0.3-0.4,0.5-0.6c0.9-1,1.7-2,2.6-2.9c0.2-0.3,0.5-0.5,0.7-0.7c0.7-0.7,1.4-1.4,2.1-2.1c0.3-0.3,0.6-0.6,0.9-0.9
	c0.7-0.7,1.4-1.4,2.2-2.1c0.2-0.2,0.5-0.4,0.7-0.7c1-0.9,1.9-1.8,2.9-2.6c0.2-0.2,0.4-0.4,0.6-0.5c0.8-0.7,1.6-1.3,2.4-2
	c0.3-0.3,0.6-0.5,1-0.8c0.8-0.6,1.5-1.2,2.3-1.8c0.3-0.2,0.6-0.4,0.9-0.7c1-0.8,2.1-1.5,3.2-2.3c0.2-0.1,0.3-0.2,0.5-0.3
	c0.9-0.6,1.9-1.2,2.8-1.8c0.3-0.2,0.7-0.4,1-0.6c0.8-0.5,1.6-1,2.4-1.5c0.3-0.2,0.7-0.4,1-0.6c1.1-0.6,2.3-1.3,3.4-1.9h-10
	c-1.1,0.6-2.3,1.2-3.4,1.9c-0.3,0.2-0.7,0.4-1,0.6c-0.8,0.5-1.6,1-2.4,1.5c-0.3,0.2-0.7,0.4-1,0.6c-0.9,0.6-1.9,1.2-2.8,1.8
	c-0.2,0.1-0.3,0.2-0.5,0.3c-1.1,0.7-2.1,1.5-3.2,2.3c-0.3,0.2-0.6,0.4-0.9,0.7c-0.8,0.6-1.5,1.2-2.3,1.8c-0.3,0.3-0.7,0.5-1,0.8
	c-0.8,0.6-1.6,1.3-2.4,2c-0.2,0.2-0.4,0.4-0.6,0.5c-1,0.9-1.9,1.7-2.9,2.6c-0.2,0.2-0.5,0.4-0.7,0.7c-0.7,0.7-1.4,1.4-2.2,2.1
	c-0.3,0.3-0.6,0.6-0.9,0.9c-0.7,0.7-1.4,1.4-2.1,2.1c-0.2,0.2-0.5,0.5-0.7,0.7c-0.9,1-1.8,1.9-2.6,2.9c-0.2,0.2-0.3,0.4-0.5,0.6
	c-0.7,0.8-1.4,1.6-2.1,2.5c-0.3,0.3-0.5,0.7-0.8,1c-0.6,0.8-1.2,1.5-1.8,2.3c-0.2,0.3-0.5,0.6-0.7,0.9c-0.1,0.1-0.2,0.3-0.3,0.4h10
	C119.1,126.9,119.2,126.8,119.3,126.6z"/>
<path class="st0" d="M130.6,280.7l-11.8,10.1c4,6.3,8.5,12.1,13.3,17.3c3.2,3.5,6.6,6.8,10.2,9.9c2.7,2.3,5.4,4.4,8.2,6.4
	c17.8,12.7,38.6,19.8,60,19.8v-17C179.2,327.3,149.3,309.9,130.6,280.7z"/>
<path class="st0" d="M142.3,318.1c-3.5-3-6.9-6.3-10.2-9.9c-4.8-5.3-9.3-11.1-13.3-17.3l-10,0c21.4,33.4,55.7,53.4,91.7,53.4h10
	c-21.4,0-42.1-7-60-19.8C147.7,322.5,145,320.3,142.3,318.1z"/>
<polygon class="st0" points="130.6,280.7 120.6,280.7 108.8,290.9 118.8,290.9 "/>
<path class="st0" d="M332.5,212.6c0,1.5,0,3.1-0.1,4.6c0,0.4,0,0.8,0,1.2c-0.1,1.5-0.1,2.9-0.3,4.4c0,0.1,0,0.2,0,0.2
	c-0.1,1.5-0.3,3.1-0.5,4.6c0,0.4-0.1,0.8-0.1,1.2c-0.2,1.4-0.4,2.8-0.6,4.2c0,0.1,0,0.3-0.1,0.4c-0.2,1.5-0.5,3-0.8,4.5
	c-0.1,0.4-0.2,0.8-0.2,1.1c-0.3,1.3-0.6,2.7-0.9,4c0,0.2-0.1,0.4-0.1,0.6c-0.4,1.5-0.7,2.9-1.1,4.4c-0.1,0.4-0.2,0.7-0.3,1.1
	c-0.4,1.3-0.7,2.5-1.2,3.8c-0.1,0.2-0.1,0.3-0.2,0.5c0,0.1,0,0.1-0.1,0.2c-0.2,0.6-0.4,1.3-0.7,1.9c-0.2,0.5-0.3,0.9-0.5,1.4
	c-0.2,0.7-0.5,1.3-0.7,1.9c-0.2,0.4-0.3,0.9-0.5,1.3c-0.3,0.7-0.6,1.4-0.9,2.1c-0.2,0.4-0.3,0.7-0.4,1.1c-0.5,1.1-0.9,2.1-1.4,3.2
	l13,8c8.7-18.9,13.3-40.2,13.3-61.8h-10H332.5z"/>
<polygon class="st0" points="310.9,266.4 323.9,274.4 333.9,274.4 320.9,266.4 "/>
<path class="st0" d="M322.3,263.2c0.2-0.4,0.3-0.7,0.4-1.1c0.3-0.7,0.6-1.4,0.9-2.1c0.2-0.4,0.3-0.9,0.5-1.3
	c0.2-0.6,0.5-1.3,0.7-1.9c0.2-0.5,0.3-0.9,0.5-1.4c0.2-0.6,0.4-1.3,0.7-1.9c0-0.1,0-0.1,0.1-0.2h-10c0,0.1,0,0.1-0.1,0.2
	c-0.2,0.6-0.4,1.3-0.7,1.9c-0.2,0.5-0.3,0.9-0.5,1.4c-0.2,0.7-0.5,1.3-0.7,1.9c-0.2,0.4-0.3,0.9-0.5,1.3c-0.3,0.7-0.6,1.4-0.9,2.1
	c-0.2,0.4-0.3,0.7-0.4,1.1c-0.5,1.1-0.9,2.1-1.4,3.2h10C321.4,265.3,321.9,264.3,322.3,263.2z"/>
<path class="st0" d="M326.2,252.8c0.4-1.2,0.8-2.5,1.2-3.8c0.1-0.4,0.2-0.7,0.3-1.1c0.4-1.4,0.8-2.9,1.1-4.4c0-0.2,0.1-0.4,0.1-0.6
	c0.3-1.3,0.6-2.6,0.9-4c0.1-0.4,0.2-0.8,0.2-1.1c0.3-1.5,0.6-3,0.8-4.5c0-0.1,0-0.3,0.1-0.4c0.2-1.4,0.4-2.8,0.6-4.2
	c0-0.4,0.1-0.8,0.1-1.2c0.2-1.5,0.3-3,0.5-4.6c0-0.1,0-0.2,0-0.2c0.1-1.5,0.2-2.9,0.3-4.4c0-0.4,0-0.8,0-1.2
	c0.1-1.5,0.1-3.1,0.1-4.6h-10c0,1.5,0,3.1-0.1,4.6c0,0.4,0,0.8,0,1.2c-0.1,1.5-0.1,2.9-0.3,4.4c0,0.1,0,0.2,0,0.2
	c-0.1,1.5-0.3,3.1-0.5,4.6c0,0.4-0.1,0.8-0.1,1.2c-0.2,1.4-0.4,2.8-0.6,4.2c0,0.1,0,0.3-0.1,0.4c-0.2,1.5-0.5,3-0.8,4.5
	c-0.1,0.4-0.2,0.8-0.2,1.1c-0.3,1.3-0.6,2.7-0.9,4c0,0.2-0.1,0.4-0.1,0.6c-0.4,1.5-0.7,2.9-1.1,4.4c-0.1,0.4-0.2,0.7-0.3,1.1
	c-0.4,1.3-0.7,2.5-1.2,3.8c-0.1,0.2-0.1,0.3-0.2,0.5h10C326.1,253.1,326.2,252.9,326.2,252.8z"/>
<path class="st0" d="M301,153.4c3.9,6.3,7.2,13,9.7,20.1h8.6c-10.6-33.9-34.4-59.5-63.2-70.1c-3.6-1.3-7.3-2.4-11-3.3
	c-1.2-0.3-2.5-0.5-3.8-0.8c-5-0.9-10.2-1.4-15.4-1.4l-10,0C251,97.9,283.2,119.5,301,153.4z"/>
<path class="st0" d="M241.3,99.3c1.3,0.2,2.5,0.5,3.8,0.8c3.7,0.9,7.4,2,11,3.3c28.8,10.7,52.6,36.2,63.2,70.1l13.8-5.8
	c-16.3-51.9-59.4-86.8-107.2-86.8v17C231.1,97.9,236.2,98.4,241.3,99.3z"/>
<rect x="215.9" y="80.9" class="st0" width="10" height="17"/>
<path class="st0" d="M162.4,299.8l2.2-4.3c-22.1-15.3-37.1-41.9-40.1-71.3l-4.3,0.6C123.4,255.7,139.2,283.7,162.4,299.8z"/>
<path class="st0" d="M152.4,299.8h10c-23.2-16.1-39-44.1-42.2-75h-10C113.4,255.7,129.2,283.7,152.4,299.8z"/>
<polygon class="st0" points="124.5,224.2 114.5,224.2 110.2,224.8 120.2,224.8 "/>
<path class="st0" d="M309.2,238.4l-4.2-1.3c-0.3,1.5-0.7,3-1.1,4.5c-0.1,0.5-0.3,0.9-0.4,1.4c-0.3,1-0.6,2-0.9,3
	c-0.1,0.3-0.2,0.5-0.2,0.7c-0.1,0.3-0.2,0.6-0.3,0.9c-0.2,0.7-0.5,1.4-0.7,2c-0.2,0.6-0.4,1.2-0.7,1.8c-0.3,0.7-0.5,1.3-0.8,2
	c-0.2,0.6-0.5,1.2-0.7,1.7c-0.3,0.7-0.6,1.3-0.9,1.9c-0.3,0.6-0.5,1.1-0.8,1.7c-0.3,0.6-0.6,1.3-0.9,1.9c-0.3,0.5-0.5,1.1-0.8,1.6
	c-0.3,0.6-0.7,1.2-1,1.9c-0.3,0.5-0.6,1-0.9,1.6c-0.4,0.6-0.7,1.2-1.1,1.8c-0.3,0.5-0.6,1-0.9,1.5c-0.4,0.6-0.8,1.2-1.2,1.8
	c-0.3,0.5-0.6,1-0.9,1.4c-0.4,0.6-0.8,1.2-1.2,1.8c-0.3,0.4-0.5,0.8-0.8,1.1c-0.1,0.1-0.1,0.2-0.2,0.3c-0.1,0.2-0.3,0.3-0.4,0.5
	c-0.6,0.7-1.1,1.5-1.7,2.2c-0.1,0.2-0.3,0.4-0.4,0.5c-0.7,0.8-1.4,1.6-2.1,2.4c-0.1,0.2-0.3,0.3-0.4,0.5c-0.6,0.7-1.2,1.4-1.9,2
	c-0.1,0.2-0.3,0.3-0.4,0.5c-0.7,0.8-1.5,1.5-2.2,2.2c-0.2,0.2-0.3,0.3-0.5,0.5c-0.7,0.6-1.3,1.2-2,1.9c-0.2,0.1-0.3,0.3-0.5,0.4
	c-0.8,0.7-1.6,1.4-2.4,2c-0.2,0.1-0.4,0.3-0.5,0.4c-0.7,0.6-1.4,1.1-2.1,1.7c-0.1,0.1-0.3,0.2-0.4,0.3c-0.8,0.6-1.7,1.2-2.5,1.8
	c-0.2,0.1-0.4,0.3-0.6,0.4c-0.7,0.5-1.5,1-2.3,1.5c-0.1,0.1-0.3,0.2-0.4,0.3c-0.9,0.5-1.8,1.1-2.6,1.6c-0.2,0.1-0.4,0.2-0.6,0.4
	c-0.8,0.4-1.6,0.9-2.4,1.3c-0.1,0.1-0.3,0.1-0.4,0.2c-0.9,0.5-1.8,0.9-2.8,1.3c-0.2,0.1-0.4,0.2-0.7,0.3c-0.8,0.4-1.7,0.7-2.5,1.1
	c-0.1,0-0.2,0.1-0.4,0.1c-0.9,0.4-1.9,0.7-2.9,1.1c-0.2,0.1-0.5,0.2-0.7,0.2c-0.9,0.3-1.8,0.6-2.7,0.9c-0.1,0-0.2,0.1-0.3,0.1
	c-1,0.3-2,0.6-3,0.8c-0.2,0.1-0.5,0.1-0.7,0.2c-0.9,0.2-1.9,0.4-2.8,0.6c-0.1,0-0.2,0-0.2,0c-1,0.2-2,0.4-3,0.5
	c-0.3,0-0.5,0.1-0.8,0.1c-1,0.1-2,0.3-3,0.4c0,0-0.1,0-0.1,0c-1,0.1-2.1,0.2-3.1,0.2c-0.3,0-0.5,0-0.8,0c-1,0-2.1,0.1-3.2,0.1v5
	C264.1,314.1,299.1,283,309.2,238.4z"/>
<rect x="214.2" y="309.1" class="st0" width="10" height="5"/>
<path class="st0" d="M227.3,309c0.3,0,0.5,0,0.8,0c1-0.1,2.1-0.1,3.1-0.2c0,0,0.1,0,0.1,0c1-0.1,2-0.2,3-0.4c0.3,0,0.5-0.1,0.8-0.1
	c1-0.2,2-0.3,3-0.5c0.1,0,0.2,0,0.2,0c0.9-0.2,1.9-0.4,2.8-0.6c0.2-0.1,0.5-0.1,0.7-0.2c1-0.2,2-0.5,3-0.8c0.1,0,0.2-0.1,0.3-0.1
	c0.9-0.3,1.8-0.6,2.7-0.9c0.2-0.1,0.5-0.2,0.7-0.2c1-0.3,1.9-0.7,2.9-1.1c0.1,0,0.2-0.1,0.4-0.1c0.9-0.3,1.7-0.7,2.5-1.1
	c0.2-0.1,0.4-0.2,0.7-0.3c0.9-0.4,1.8-0.9,2.8-1.3c0.1-0.1,0.3-0.1,0.4-0.2c0.8-0.4,1.6-0.8,2.4-1.3c0.2-0.1,0.4-0.2,0.6-0.4
	c0.9-0.5,1.8-1,2.6-1.6c0.1-0.1,0.3-0.2,0.4-0.3c0.8-0.5,1.5-1,2.3-1.5c0.2-0.1,0.4-0.3,0.6-0.4c0.8-0.6,1.7-1.2,2.5-1.8
	c0.1-0.1,0.3-0.2,0.4-0.3c0.7-0.5,1.4-1.1,2.1-1.7c0.2-0.1,0.4-0.3,0.5-0.4c0.8-0.7,1.6-1.3,2.4-2c0.2-0.1,0.3-0.3,0.5-0.4
	c0.7-0.6,1.3-1.2,2-1.9c0.2-0.2,0.3-0.3,0.5-0.5c0.8-0.7,1.5-1.5,2.2-2.2c0.1-0.2,0.3-0.3,0.4-0.5c0.6-0.7,1.2-1.3,1.9-2
	c0.1-0.2,0.3-0.3,0.4-0.5c0.7-0.8,1.4-1.6,2.1-2.4c0.1-0.2,0.3-0.4,0.4-0.5c0.6-0.7,1.2-1.5,1.7-2.2c0.1-0.2,0.3-0.3,0.4-0.5
	c0.1-0.1,0.1-0.2,0.2-0.3h-10c-0.1,0.1-0.1,0.2-0.2,0.3c-0.1,0.2-0.3,0.3-0.4,0.5c-0.6,0.7-1.1,1.5-1.7,2.2
	c-0.1,0.2-0.3,0.4-0.4,0.5c-0.7,0.8-1.4,1.6-2.1,2.4c-0.1,0.2-0.3,0.3-0.4,0.5c-0.6,0.7-1.2,1.4-1.9,2c-0.1,0.2-0.3,0.3-0.4,0.5
	c-0.7,0.8-1.5,1.5-2.2,2.2c-0.2,0.2-0.3,0.3-0.5,0.5c-0.7,0.6-1.3,1.2-2,1.9c-0.2,0.1-0.3,0.3-0.5,0.4c-0.8,0.7-1.6,1.4-2.4,2
	c-0.2,0.1-0.4,0.3-0.5,0.4c-0.7,0.6-1.4,1.1-2.1,1.7c-0.1,0.1-0.3,0.2-0.4,0.3c-0.8,0.6-1.7,1.2-2.5,1.8c-0.2,0.1-0.4,0.3-0.6,0.4
	c-0.7,0.5-1.5,1-2.3,1.5c-0.1,0.1-0.3,0.2-0.4,0.3c-0.9,0.5-1.8,1.1-2.6,1.6c-0.2,0.1-0.4,0.2-0.6,0.4c-0.8,0.4-1.6,0.9-2.4,1.3
	c-0.1,0.1-0.3,0.1-0.4,0.2c-0.9,0.5-1.8,0.9-2.8,1.3c-0.2,0.1-0.4,0.2-0.7,0.3c-0.8,0.4-1.7,0.7-2.5,1.1c-0.1,0-0.2,0.1-0.4,0.1
	c-0.9,0.4-1.9,0.7-2.9,1.1c-0.2,0.1-0.5,0.2-0.7,0.2c-0.9,0.3-1.8,0.6-2.7,0.9c-0.1,0-0.2,0.1-0.3,0.1c-1,0.3-2,0.6-3,0.8
	c-0.2,0.1-0.5,0.1-0.7,0.2c-0.9,0.2-1.9,0.4-2.8,0.6c-0.1,0-0.2,0-0.2,0c-1,0.2-2,0.4-3,0.5c-0.3,0-0.5,0.1-0.8,0.1
	c-1,0.1-2,0.3-3,0.4c0,0-0.1,0-0.1,0c-1,0.1-2.1,0.2-3.1,0.2c-0.3,0-0.5,0-0.8,0c-1,0-2.1,0.1-3.2,0.1h10
	C225.2,309.1,226.3,309.1,227.3,309z"/>
<path class="st0" d="M288.6,274.1c0.4-0.6,0.8-1.2,1.2-1.8c0.3-0.5,0.6-1,0.9-1.4c0.4-0.6,0.8-1.2,1.2-1.8c0.3-0.5,0.6-1,0.9-1.5
	c0.4-0.6,0.7-1.2,1.1-1.8c0.3-0.5,0.6-1,0.9-1.6c0.3-0.6,0.7-1.2,1-1.9c0.3-0.5,0.5-1.1,0.8-1.6c0.3-0.6,0.6-1.3,0.9-1.9
	c0.3-0.6,0.5-1.1,0.8-1.7c0.3-0.6,0.6-1.3,0.9-1.9c0.2-0.6,0.5-1.1,0.7-1.7c0.3-0.7,0.5-1.3,0.8-2c0.2-0.6,0.4-1.2,0.7-1.8
	c0.2-0.7,0.5-1.4,0.7-2c0.1-0.3,0.2-0.6,0.3-0.9h-10c-0.1,0.3-0.2,0.6-0.3,0.9c-0.2,0.7-0.5,1.4-0.7,2c-0.2,0.6-0.4,1.2-0.7,1.8
	c-0.3,0.7-0.5,1.3-0.8,2c-0.2,0.6-0.5,1.2-0.7,1.7c-0.3,0.7-0.6,1.3-0.9,1.9c-0.3,0.6-0.5,1.1-0.8,1.7c-0.3,0.6-0.6,1.3-0.9,1.9
	c-0.3,0.5-0.5,1.1-0.8,1.6c-0.3,0.6-0.7,1.2-1,1.9c-0.3,0.5-0.6,1-0.9,1.6c-0.4,0.6-0.7,1.2-1.1,1.8c-0.3,0.5-0.6,1-0.9,1.5
	c-0.4,0.6-0.8,1.2-1.2,1.8c-0.3,0.5-0.6,1-0.9,1.4c-0.4,0.6-0.8,1.2-1.2,1.8c-0.3,0.4-0.5,0.8-0.8,1.1h10
	C288.1,274.8,288.4,274.4,288.6,274.1z"/>
<path class="st0" d="M302.6,246c0.3-1,0.6-2,0.9-3c0.1-0.5,0.3-0.9,0.4-1.4c0.4-1.5,0.8-3,1.1-4.5h-10c-0.3,1.5-0.7,3-1.1,4.5
	c-0.1,0.5-0.3,0.9-0.4,1.4c-0.3,1-0.6,2-0.9,3c-0.1,0.2-0.1,0.5-0.2,0.7h10C302.4,246.5,302.5,246.3,302.6,246z"/>
<path class="st0" d="M299,150.4l-3.4,3.1c11.5,17.1,17.5,37.5,17.5,59.1h4.3c0-13.6-2.3-26.8-6.7-39.1c-2.5-7-5.8-13.8-9.7-20.1
	C300.3,152.4,299.7,151.4,299,150.4z"/>
<path class="st0" d="M285.6,153.4c11.5,17.1,17.5,37.5,17.5,59.1h10c0-21.6-6.1-42.1-17.5-59.1L285.6,153.4z"/>
<polygon class="st0" points="299,150.4 289,150.4 285.6,153.4 295.6,153.4 "/>
<path class="st0" d="M250.3,151.3c-5.1-3.4-10.5-5.8-16.2-7.3c-1.9-0.5-3.8-0.9-5.7-1.2c-1.9-0.3-3.9-0.5-5.8-0.5c-0.7,0-1.3,0-2,0
	c-1.7,0-3.3,0.1-5,0.3c8.7,0.8,17.1,3.9,24.7,8.9c14.8,9.9,25.3,26.6,28.7,45.8h10C275.6,177.8,265.2,161.1,250.3,151.3z"/>
<path class="st0" d="M212.7,142.8c1-0.1,2-0.3,2.9-0.4c1.7-0.2,3.3-0.3,5-0.3l0,0c0.7,0,1.3,0,2,0c2,0.1,3.9,0.3,5.8,0.5
	c1.9,0.3,3.8,0.7,5.7,1.2c5.7,1.5,11.1,4,16.2,7.3c14.8,9.9,25.3,26.6,28.7,45.8l7.6-1.8c-3.9-21.8-15.7-40.7-32.5-51.8
	c-10.2-6.8-21.8-10.3-33.6-10.3c-0.8,0-1.5,0-2.3,0c-2.3,0.1-4.5,0.3-6.7,0.6L212.7,142.8z"/>
<polygon class="st0" points="211.7,133.8 201.7,133.8 202.7,142.8 212.7,142.8 "/>
<path class="st0" d="M210.6,133.2c-3,0-6,0.2-9,0.7h10c2.2-0.3,4.5-0.6,6.7-0.6c0.8,0,1.5,0,2.3,0H210.6z"/>
<path class="st0" d="M124.6,92c24.1-23,54.7-35.7,86.1-35.7v-7c-32.8,0-64.7,13.2-89.9,37.3L124.6,92z"/>
<polygon class="st0" points="124.6,92 120.7,86.6 110.7,86.6 114.6,92 "/>
<path class="st0" d="M210.6,49.3h-10c-32.8,0-64.7,13.2-89.9,37.3h10C145.9,62.6,177.9,49.3,210.6,49.3z"/>
</svg>
