<svg id="Layer_1" data-name="Layer 1" xmlns="http://www.w3.org/2000/svg" viewBox="0 0 305.57 475.27"><defs><style>.cls-1{fill:none;}.cls-2{fill:#3f7e85;}.cls-3{fill:#a1f6ff;}</style></defs><title>nodos</title><path class="cls-1" d="M278.4,378.23a1.75,1.75,0,0,1-1-.77l-14.32,3.39L294,388.06l.08,0-13.83-10A2.18,2.18,0,0,1,278.4,378.23Z" transform="translate(8.78 0)"/><path class="cls-1" d="M75.26,390.42a2.53,2.53,0,0,1-.37-.18l-43.35,62.6a1.41,1.41,0,0,1,0,1.31c0,.08-.09.15-.14.23l114,13.22a1.76,1.76,0,0,1,.44-.42L76.28,390.51A2.21,2.21,0,0,1,75.26,390.42Z" transform="translate(8.78 0)"/><path class="cls-1" d="M250.86,424.44a2.15,2.15,0,0,1-.66-.4L149.11,468.1h7.28L266,429.81a1.46,1.46,0,0,1-.16-.92L253,424A2.11,2.11,0,0,1,250.86,424.44Z" transform="translate(8.78 0)"/><path class="cls-1" d="M262.7,382.07a2,2,0,0,1-2.48.9,1.57,1.57,0,0,1-1-2.14,1.93,1.93,0,0,1,1.74-1L204.63,317a2.07,2.07,0,0,1-.88.39L199.41,380a2.18,2.18,0,0,1,.61.11,1.58,1.58,0,0,1,1,2.14,2,2,0,0,1-2.48.9,1.58,1.58,0,0,1-1.11-2l-119.62,8a1.73,1.73,0,0,1-.11.32,1.79,1.79,0,0,1-.52.61l77.11,51.58a2.11,2.11,0,0,1,2.12-.41,1.57,1.57,0,0,1,1,2.14,2,2,0,0,1-2.29.95l-7.58,22.5.19.05a1.8,1.8,0,0,1,1,.79l101.11-44.08a1.45,1.45,0,0,1-.07-1.36,2,2,0,0,1,2.48-.9,1.58,1.58,0,0,1,1,2.15l0,0L266,428.46a2,2,0,0,1,2.45-.86l.23.11,24.89-37.07a1.48,1.48,0,0,1-.41-1.78,1.8,1.8,0,0,1,.35-.47l-30.65-7.16A1.45,1.45,0,0,1,262.7,382.07Z" transform="translate(8.78 0)"/><path class="cls-1" d="M154,442.19l.08-.12L76.8,390.39l39.28,43.23L146.35,467a2.27,2.27,0,0,1,.77-.13l7.62-22.61A1.53,1.53,0,0,1,154,442.19Z" transform="translate(8.78 0)"/><path class="cls-1" d="M160.5,147.79a1.8,1.8,0,0,1,1.94.17l35.7-38.56,29.24-31.57a1.9,1.9,0,0,1-.6-1.24L106.94,85.87a1.71,1.71,0,0,1-.49.51l21.33,24.24Z" transform="translate(8.78 0)"/><path class="cls-1" d="M103.55,174.15a1.88,1.88,0,0,1,.9.79l37.83-18.14-18.13,2.08-21,2.41a1.86,1.86,0,0,1-.12.43,1.91,1.91,0,0,1-1.55,1.16L103.07,174A2.11,2.11,0,0,1,103.55,174.15Z" transform="translate(8.78 0)"/><path class="cls-1" d="M143.28,156.08l-37.5-69.39h0l-4.34,72.41a1.86,1.86,0,0,1,1.76,1.67l40.13-4.6S143.28,156.12,143.28,156.08Z" transform="translate(8.78 0)"/><path class="cls-1" d="M134.06,138l9.35,17.29v0a1.91,1.91,0,0,1,3.35-.33l12.7-5a1.9,1.9,0,0,1,.11-1.1,1.79,1.79,0,0,1,.51-.7L106.81,87.55Z" transform="translate(8.78 0)"/><path class="cls-1" d="M257.88,92.86l15.9-89.61a1.65,1.65,0,0,1-.37-.33L262,22,230.12,75.23a1.89,1.89,0,0,1,.43,1.43l25.52,16.59A1.94,1.94,0,0,1,257.88,92.86Z" transform="translate(8.78 0)"/><path class="cls-1" d="M113.53,192.58H69.41s0,0,0,.06a1.91,1.91,0,0,1-1.22,1.09l.7,38.05a1.42,1.42,0,0,1,.21,1.43l57.47-27.08Z" transform="translate(8.78 0)"/><path class="cls-1" d="M99.52,160.28a1.87,1.87,0,0,1,.17-.31L43,86.81,67.69,190a2.21,2.21,0,0,1,.66.13,1.85,1.85,0,0,1,.58.39l30.82-28.43A1.87,1.87,0,0,1,99.52,160.28Z" transform="translate(8.78 0)"/><path class="cls-1" d="M66.05,233.92,13.64,264.28a1.41,1.41,0,0,1-.1.92,1.77,1.77,0,0,1-.76.77l34.13,105.1L67.26,234.33a2.33,2.33,0,0,1-.69-.12A1.75,1.75,0,0,1,66.05,233.92Z" transform="translate(8.78 0)"/><path class="cls-1" d="M162.8,148.3h0L255.69,95.6a1.87,1.87,0,0,1-.12-1.65,3.24,3.24,0,0,1,.17-.32L245.47,87l-15.05-9.78h0l.31.39-.37-.28a1.89,1.89,0,0,1-2.41.91,1.19,1.19,0,0,1-.16-.08L205.65,102Z" transform="translate(8.78 0)"/><path class="cls-1" d="M24.44,89a1.87,1.87,0,0,1,2.77.69l14.31-3.93L10.69,77.41l-.09,0Z" transform="translate(8.78 0)"/><path class="cls-1" d="M269.57,429.39,290,437.48a2,2,0,0,1,1.08-.56l3.68-45.8a2,2,0,0,1-.59-.11l-.23-.11L269.05,428A1.51,1.51,0,0,1,269.57,429.39Z" transform="translate(8.78 0)"/><path class="cls-1" d="M45.46,373.51-.88,379.12l30.25,72.82a2,2,0,0,1,1,0l15.89-77.45A1.67,1.67,0,0,1,45.46,373.51Z" transform="translate(8.78 0)"/><path class="cls-1" d="M-8.28,358.41v10.83l0,0,7.17,9.44,3-.37,43.49-5.27a.34.34,0,0,1,0-.1Z" transform="translate(8.78 0)"/><polygon class="cls-1" points="299.24 474.84 301.68 474.84 301.07 471.55 299.24 474.84"/><polygon class="cls-1" points="0.56 265.75 0.5 265.84 0.5 286.44 3.48 286.2 0.56 265.75"/><path class="cls-1" d="M161.86,321.75l-.62-1v0a2,2,0,0,1-2.48.9,1.85,1.85,0,0,1-.86-.62l-12.71,4.36a1.43,1.43,0,0,1-.1.95,1.87,1.87,0,0,1-.51.61l53.26,52.31Z" transform="translate(8.78 0)"/><path class="cls-1" d="M77.27,387.69a1.58,1.58,0,0,1,.6,1.08l119.83-8a1.72,1.72,0,0,1,.49-.44l-20.9-20.53-33.14-32.55a2.17,2.17,0,0,1-1.55,0,1.66,1.66,0,0,1-.4-.2l-34.77,32.46Z" transform="translate(8.78 0)"/><path class="cls-1" d="M152.77,313.26l5.84,5.44a2.1,2.1,0,0,1,1.58-.07,2,2,0,0,1,.48.25l15.82-28.28Z" transform="translate(8.78 0)"/><path class="cls-1" d="M74.52,389.94a1.46,1.46,0,0,1-.42-1.24L48.57,374.36a2.12,2.12,0,0,1-1.81.34L30.87,452.16a2.11,2.11,0,0,1,.37.28l11.55-16.68Z" transform="translate(8.78 0)"/><path class="cls-1" d="M74.23,388.26h0l-.31-.35.37.25a2,2,0,0,1,2.41-.79l.15.07,26.61-24.84,38.38-35.83h0L49,372.33a1.43,1.43,0,0,1,.11,1.43,1.34,1.34,0,0,1-.17.27l15.35,8.62Z" transform="translate(8.78 0)"/><path class="cls-1" d="M204.9,314.84a1.45,1.45,0,0,1,.22,1.58,1.48,1.48,0,0,1-.16.27l56.7,63.24L237,290.71a1.91,1.91,0,0,1-1.25-.44Z" transform="translate(8.78 0)"/><path class="cls-1" d="M198.91,380l4.34-62.59a2.18,2.18,0,0,1-.61-.11,1.69,1.69,0,0,1-1.16-1.33l-40.13,4a.19.19,0,0,1,0,.08l37.5,60Z" transform="translate(8.78 0)"/><path class="cls-1" d="M201.6,315.18a2,2,0,0,1,2.48-.9,1.76,1.76,0,0,1,.47.25l30.85-24.6a1.43,1.43,0,0,1-.14-1.48,1.75,1.75,0,0,1,1-.87l-.47-29.39a1.91,1.91,0,0,1-.21-1.65L179,287.36a1.52,1.52,0,0,1,.68,2,2,2,0,0,1-2.48.9l-.11-.05-16.18,28.93a2,2,0,0,1,.3.42l40.25-4A1.3,1.3,0,0,1,201.6,315.18Z" transform="translate(8.78 0)"/><path class="cls-1" d="M35.08,29.59,14.65,20.23a1.9,1.9,0,0,1-1.08.65l-3.68,53a1.72,1.72,0,0,1,.59.12,1.26,1.26,0,0,1,.23.13L35.6,31.24A1.92,1.92,0,0,1,35.08,29.59Z" transform="translate(8.78 0)"/><polygon class="cls-1" points="0.5 370.02 0.5 381.07 7.19 378.83 0.5 370.02"/><polygon class="cls-1" points="52.31 474.84 39.25 455.36 40.81 474.84 52.31 474.84"/><path class="cls-2" d="M143.41,155.26,134.06,138,106.81,87.55l53.27,60.52a1.54,1.54,0,0,1,.42-.28l-32.72-37.17L106.45,86.38a1.86,1.86,0,0,1-.67.31l37.5,69.39A1.81,1.81,0,0,1,143.41,155.26Z" transform="translate(8.78 0)"/><path class="cls-2" d="M101.4,159.11l4.34-72.41a1.67,1.67,0,0,1-.5,0l-4.35,72.41A1.75,1.75,0,0,1,101.4,159.11Z" transform="translate(8.78 0)"/><path class="cls-2" d="M103.07,174l-1.58-11.15a1.68,1.68,0,0,1-.5,0L102.56,174A1.74,1.74,0,0,1,103.07,174Z" transform="translate(8.78 0)"/><path class="cls-2" d="M143.29,156.18l-40.13,4.6a2.17,2.17,0,0,1,0,.51l21-2.41,18.13-2.08-37.83,18.14a1.89,1.89,0,0,1,.2.46l38.81-18.62A2.06,2.06,0,0,1,143.29,156.18Z" transform="translate(8.78 0)"/><path class="cls-2" d="M230.42,77.18l-.06.11.37.28Z" transform="translate(8.78 0)"/><path class="cls-2" d="M149.91,12.44,153.53,0H153l-3.57,12.24a1.06,1.06,0,0,1,.19.06Z" transform="translate(8.78 0)"/><path class="cls-2" d="M106.94,85.87l119.84-9.28a2.18,2.18,0,0,1,0-.51L107.17,85.36c0,.06,0,.13-.06.2A1.54,1.54,0,0,1,106.94,85.87Z" transform="translate(8.78 0)"/><path class="cls-2" d="M146.76,154.91a1.85,1.85,0,0,1,.21.45l12.66-5a2.38,2.38,0,0,1-.17-.47Z" transform="translate(8.78 0)"/><path class="cls-2" d="M35.6,31.24,10.71,74.12a1.73,1.73,0,0,1,.41.3L36,31.54A2,2,0,0,1,35.6,31.24Z" transform="translate(8.78 0)"/><path class="cls-2" d="M9.12,77.87l.16-.29-.14,0Z" transform="translate(8.78 0)"/><path class="cls-2" d="M35.08,29.59a1.91,1.91,0,0,1,.11-.41.43.43,0,0,1,0-.07L14.92,19.8a1.73,1.73,0,0,1-.27.43Z" transform="translate(8.78 0)"/><path class="cls-2" d="M9.89,73.87l3.68-53a1.67,1.67,0,0,1-.5,0l-3.68,53A1.69,1.69,0,0,1,9.89,73.87Z" transform="translate(8.78 0)"/><path class="cls-2" d="M288,104.41v-.52l-28.78-9a2,2,0,0,1-.11.49Z" transform="translate(8.78 0)"/><path class="cls-2" d="M162.81,148.31a2.26,2.26,0,0,1,.26.42L256,96a1.73,1.73,0,0,1-.3-.41Z" transform="translate(8.78 0)"/><path class="cls-2" d="M162.44,148a1.67,1.67,0,0,1,.36.34L205.65,102l22.14-23.91a2,2,0,0,1-.41-.29L198.14,109.4Z" transform="translate(8.78 0)"/><path class="cls-2" d="M255.74,93.63a2.37,2.37,0,0,1,.33-.38L230.55,76.66a1.74,1.74,0,0,1-.12.5v0L245.47,87Z" transform="translate(8.78 0)"/><path class="cls-2" d="M38.51,28.81,74.53,0h-.8L38.16,28.44A2,2,0,0,1,38.51,28.81Z" transform="translate(8.78 0)"/><path class="cls-2" d="M37.93,31.53l7.13,6.29a1.7,1.7,0,0,1,.36-.35l-7.09-6.26A2.08,2.08,0,0,1,37.93,31.53Z" transform="translate(8.78 0)"/><path class="cls-2" d="M85.29,0h-.7L47.28,37.22a2.16,2.16,0,0,1,.44.27Z" transform="translate(8.78 0)"/><path class="cls-2" d="M273.86,0l0,0,.05,0Z" transform="translate(8.78 0)"/><path class="cls-2" d="M273.59.23,271.84,0h-3.76l5.12.69A1.94,1.94,0,0,1,273.59.23Z" transform="translate(8.78 0)"/><path class="cls-2" d="M228.37,74.57,169.81,0h-.64l18.42,23.46,40.25,51.25L150.6,14.93a2,2,0,0,1-.29.41L227.42,75A1.89,1.89,0,0,1,228.37,74.57Z" transform="translate(8.78 0)"/><path class="cls-2" d="M288,39V37.47L275.74,3.32a1.66,1.66,0,0,1-.46.19Z" transform="translate(8.78 0)"/><path class="cls-2" d="M259.23,94.74l28.77-4V90.2l-28.82,4A2.07,2.07,0,0,1,259.23,94.74Z" transform="translate(8.78 0)"/><path class="cls-2" d="M230.12,75.23,262,22l11.4-19a1.77,1.77,0,0,1-.31-.46L229.75,74.88A1.76,1.76,0,0,1,230.12,75.23Z" transform="translate(8.78 0)"/><path class="cls-2" d="M274.11,3.43a1.74,1.74,0,0,1-.33-.18l-15.9,89.61.17,0,.31.16,15.89-89.6Z" transform="translate(8.78 0)"/><path class="cls-2" d="M11.17,77a1.79,1.79,0,0,1-.48.39l30.83,8.33L27.21,89.67a1.75,1.75,0,0,1,.17.47l14.74-4a1.8,1.8,0,0,1-.29-.79Z" transform="translate(8.78 0)"/><path class="cls-2" d="M24.44,89,10.6,77.45a1.9,1.9,0,0,1-.57.18l14,11.69A1.7,1.7,0,0,1,24.44,89Z" transform="translate(8.78 0)"/><path class="cls-2" d="M67.69,190,43,86.81a2.2,2.2,0,0,1-.62-.4L67.19,190.07A2.07,2.07,0,0,1,67.69,190Z" transform="translate(8.78 0)"/><path class="cls-2" d="M43,86.81,99.69,160a1.7,1.7,0,0,1,.33-.38L43.73,87A1.91,1.91,0,0,1,43,86.81Z" transform="translate(8.78 0)"/><path class="cls-2" d="M99.75,162.11,68.93,190.54a1.52,1.52,0,0,1,.32.39l30.84-28.46A1.92,1.92,0,0,1,99.75,162.11Z" transform="translate(8.78 0)"/><path class="cls-2" d="M288,224.56v-1.64l-20-62.48a2,2,0,0,1-.49.09Z" transform="translate(8.78 0)"/><path class="cls-2" d="M238.28,255.49,288,238.24v-.53l-50.56,17.54a1.84,1.84,0,0,1,.64.14Z" transform="translate(8.78 0)"/><path class="cls-2" d="M235.77,258.19l.47,29.39a2.83,2.83,0,0,1,.5-.13l-.46-28.74A1.8,1.8,0,0,1,235.77,258.19Z" transform="translate(8.78 0)"/><path class="cls-2" d="M179,287.36l56.53-30.82a.56.56,0,0,1,0-.12,1.85,1.85,0,0,1,.82-.92l30.46-95.05-.18-.06-.28-.14-30.64,95.6-57.37,31.28.26.06A3,3,0,0,1,179,287.36Z" transform="translate(8.78 0)"/><path class="cls-3" d="M150.68,14.78a1.9,1.9,0,0,0-.77-2.34l-.28-.14a1.06,1.06,0,0,0-.19-.06,1.9,1.9,0,1,0,.87,3.1,2,2,0,0,0,.29-.41A1.09,1.09,0,0,1,150.68,14.78Z" transform="translate(8.78 0)"/><path class="cls-3" d="M145.89,154.2a1.9,1.9,0,0,0-2.48,1v0a1.81,1.81,0,0,0-.13.82s0,.07,0,.1a2.06,2.06,0,0,0,.17.6,2,2,0,0,0,1,.95,1.9,1.9,0,0,0,2.48-1,1.88,1.88,0,0,0,0-1.32,1.85,1.85,0,0,0-.21-.45A1.91,1.91,0,0,0,145.89,154.2Z" transform="translate(8.78 0)"/><path class="cls-3" d="M273.41,2.92a1.65,1.65,0,0,0,.37.33,1.74,1.74,0,0,0,.33.18l.14,0a1.9,1.9,0,0,0,1,0,1.66,1.66,0,0,0,.46-.19,1.82,1.82,0,0,0,.84-.93A1.88,1.88,0,0,0,275.72,0h-1.79l-.05,0a2.11,2.11,0,0,0-.29.2,1.94,1.94,0,0,0-.39.46,1.59,1.59,0,0,0-.14.26,1.93,1.93,0,0,0,0,1.51A1.77,1.77,0,0,0,273.41,2.92Z" transform="translate(8.78 0)"/><path class="cls-3" d="M226.78,76.59a1.9,1.9,0,0,0,.6,1.24,2,2,0,0,0,.41.29,1.19,1.19,0,0,0,.16.08,1.89,1.89,0,0,0,2.41-.91l.06-.11h0v0a1.74,1.74,0,0,0,.12-.5,1.89,1.89,0,0,0-.43-1.43,1.76,1.76,0,0,0-.37-.35,1.58,1.58,0,0,0-.36-.2,1.81,1.81,0,0,0-1-.11,1.89,1.89,0,0,0-1,.44,1.75,1.75,0,0,0-.51.71,1.65,1.65,0,0,0-.11.36A2.18,2.18,0,0,0,226.78,76.59Z" transform="translate(8.78 0)"/><path class="cls-3" d="M13.57,20.88a1.9,1.9,0,0,0,1.08-.65,1.73,1.73,0,0,0,.27-.43.43.43,0,0,0,0-.07,1.9,1.9,0,1,0-2.48,1.05,2,2,0,0,0,.59.12A1.67,1.67,0,0,0,13.57,20.88Z" transform="translate(8.78 0)"/><path class="cls-3" d="M162.8,148.3a1.67,1.67,0,0,0-.36-.34,1.8,1.8,0,0,0-1.94-.17,1.54,1.54,0,0,0-.42.28,1.79,1.79,0,0,0-.51.7,1.9,1.9,0,0,0-.11,1.1,2.38,2.38,0,0,0,.17.47,1.86,1.86,0,0,0,1,.91,1.9,1.9,0,0,0,2.46-2.52,2.26,2.26,0,0,0-.26-.42Z" transform="translate(8.78 0)"/><path class="cls-3" d="M43.73,87A1.9,1.9,0,1,0,42,84.33a1.72,1.72,0,0,0-.12,1,1.8,1.8,0,0,0,.29.79,2,2,0,0,0,.25.32,2.2,2.2,0,0,0,.62.4A1.91,1.91,0,0,0,43.73,87Z" transform="translate(8.78 0)"/><path class="cls-3" d="M69.51,192.15a1.91,1.91,0,0,0-.26-1.22,1.52,1.52,0,0,0-.32-.39,1.85,1.85,0,0,0-.58-.39,2.21,2.21,0,0,0-.66-.13,2.07,2.07,0,0,0-.5,0,1.9,1.9,0,0,0-.28,3.61,2,2,0,0,0,.76.14l0-1.67Z" transform="translate(8.78 0)"/><path class="cls-3" d="M69.39,192.64s0,0,0-.06H68.15l0,1.15A1.91,1.91,0,0,0,69.39,192.64Z" transform="translate(8.78 0)"/><path class="cls-3" d="M35.08,29.59a1.92,1.92,0,0,0,.52,1.65,2,2,0,0,0,.4.3,2.53,2.53,0,0,0,.23.12,1.91,1.91,0,0,0,1.7-.13,2.08,2.08,0,0,0,.4-.32,1.81,1.81,0,0,0,.38-.59,1.88,1.88,0,0,0-.2-1.81,2,2,0,0,0-.35-.37,1.84,1.84,0,0,0-.49-.3,1.89,1.89,0,0,0-2.44,1,.43.43,0,0,0,0,.07A1.91,1.91,0,0,0,35.08,29.59Z" transform="translate(8.78 0)"/><path class="cls-3" d="M99.69,160a1.83,1.83,0,0,0,.06,2.14,1.92,1.92,0,0,0,.34.36,2.29,2.29,0,0,0,.47.29,2.26,2.26,0,0,0,.43.11,1.68,1.68,0,0,0,.5,0,1.91,1.91,0,0,0,1.55-1.16,1.86,1.86,0,0,0,.12-.43,2.17,2.17,0,0,0,0-.51,1.86,1.86,0,0,0-1.76-1.67,1.75,1.75,0,0,0-.51,0,1.78,1.78,0,0,0-.87.45A1.7,1.7,0,0,0,99.69,160Z" transform="translate(8.78 0)"/><path class="cls-3" d="M105.74,86.7h0a1.86,1.86,0,0,0,.67-.31,1.71,1.71,0,0,0,.49-.51,1.54,1.54,0,0,0,.17-.31c0-.07,0-.14.06-.2a1.9,1.9,0,1,0-2.54,1.25,1.84,1.84,0,0,0,.61.12A1.67,1.67,0,0,0,105.74,86.7Z" transform="translate(8.78 0)"/><path class="cls-3" d="M10.69,77.41a1.79,1.79,0,0,0,.48-.39,1.67,1.67,0,0,0,.35-.55,1.88,1.88,0,0,0-.4-2,1.73,1.73,0,0,0-.41-.3,1.26,1.26,0,0,0-.23-.13,1.72,1.72,0,0,0-.59-.12,1.69,1.69,0,0,0-.5,0A1.9,1.9,0,0,0,9,77.51a.38.38,0,0,0,.1,0l.14,0a1.75,1.75,0,0,0,.75,0,1.9,1.9,0,0,0,.57-.18Z" transform="translate(8.78 0)"/><path class="cls-3" d="M45.06,37.82a2.16,2.16,0,0,0-.27.44,1.9,1.9,0,1,0,2.93-.77,2.16,2.16,0,0,0-.44-.27h0a1.9,1.9,0,0,0-1.86.25A1.7,1.7,0,0,0,45.06,37.82Z" transform="translate(8.78 0)"/><path class="cls-3" d="M235.6,256.42a.56.56,0,0,0,0,.12,1.91,1.91,0,0,0,.21,1.65,1.8,1.8,0,0,0,.51.52,2,2,0,0,0,.36.19,1.89,1.89,0,0,0,1.64-3.41l-.2-.1a1.84,1.84,0,0,0-.64-.14,2,2,0,0,0-1,.25A1.85,1.85,0,0,0,235.6,256.42Z" transform="translate(8.78 0)"/><path class="cls-3" d="M258.05,92.91l-.17,0a1.94,1.94,0,0,0-1.81.39,2.37,2.37,0,0,0-.33.38,3.24,3.24,0,0,0-.17.32,1.87,1.87,0,0,0,.12,1.65,1.81,1.81,0,0,0,.93.83,1.89,1.89,0,0,0,2.47-1s0,0,0,0a2,2,0,0,0,.11-.49s0-.08,0-.12a2.07,2.07,0,0,0-.05-.5,1.91,1.91,0,0,0-.82-1.17Z" transform="translate(8.78 0)"/><path class="cls-3" d="M266.88,160.45a1.89,1.89,0,0,0,.62.08,2,2,0,0,0,.49-.09,1.9,1.9,0,1,0-2.33-2.52,1.89,1.89,0,0,0,.76,2.33l.28.14Z" transform="translate(8.78 0)"/><path class="cls-3" d="M103.55,174.15a2.11,2.11,0,0,0-.48-.12,1.74,1.74,0,0,0-.51,0,1.86,1.86,0,0,0-1.49,1.15,1.9,1.9,0,0,0,3.52,1.44,1.93,1.93,0,0,0,.06-1.23,2,2,0,0,0-1.1-1.25Z" transform="translate(8.78 0)"/><path class="cls-3" d="M26.25,88.77a1.9,1.9,0,0,0-1.81.21,1.7,1.7,0,0,0-.37.34,2.26,2.26,0,0,0-.31.49,1.9,1.9,0,0,0,3.52,1.44,1.85,1.85,0,0,0,.1-1.11,1.75,1.75,0,0,0-.17-.47A1.92,1.92,0,0,0,26.25,88.77Z" transform="translate(8.78 0)"/><path class="cls-2" d="M203.25,317.43,198.91,380a2.07,2.07,0,0,1,.5,0l4.34-62.59A2.07,2.07,0,0,1,203.25,317.43Z" transform="translate(8.78 0)"/><path class="cls-2" d="M201.49,315.55l-40.25,4a1.6,1.6,0,0,1,.11.43l40.13-4A1.3,1.3,0,0,1,201.49,315.55Z" transform="translate(8.78 0)"/><path class="cls-2" d="M152.77,313.26l23.72-22.66-15.82,28.28a1.55,1.55,0,0,1,.27.24l16.18-28.93a2.13,2.13,0,0,1-.44-.26L152.22,313.3l6,5.6a1.58,1.58,0,0,1,.36-.2Z" transform="translate(8.78 0)"/><path class="cls-2" d="M73.92,387.91l.31.35a.33.33,0,0,1,.06-.1Z" transform="translate(8.78 0)"/><path class="cls-2" d="M155,444.34l-.27-.13-7.62,22.61a2.08,2.08,0,0,1,.5.07l7.58-22.5Z" transform="translate(8.78 0)"/><path class="cls-2" d="M76.8,390.39l77.25,51.68a1.93,1.93,0,0,1,.28-.36L77.22,390.13a2,2,0,0,1-.94.38l69.64,76.67a2.55,2.55,0,0,1,.43-.23l-30.27-33.33Z" transform="translate(8.78 0)"/><path class="cls-2" d="M197.7,380.74l-119.83,8a1.55,1.55,0,0,1,0,.43l119.62-8,.06-.18A1.78,1.78,0,0,1,197.7,380.74Z" transform="translate(8.78 0)"/><path class="cls-2" d="M198.19,380.3a2,2,0,0,1,.67-.27l-37.5-60a1.39,1.39,0,0,1-.12.71l.62,1,36,57.54L144.57,327a2.18,2.18,0,0,1-.42.24l33.14,32.55Z" transform="translate(8.78 0)"/><path class="cls-2" d="M157.89,321.06a1.5,1.5,0,0,1-.22-.39L145,325a1.32,1.32,0,0,1,.17.41Z" transform="translate(8.78 0)"/><path class="cls-2" d="M295.53,387.66l-.16.24.14,0Z" transform="translate(8.78 0)"/><path class="cls-2" d="M269.05,428l24.88-37.07a1.62,1.62,0,0,1-.4-.26l-24.89,37.07A1.59,1.59,0,0,1,269.05,428Z" transform="translate(8.78 0)"/><path class="cls-2" d="M294.75,391.12l-3.68,45.8a2.18,2.18,0,0,1,.51,0l3.67-45.8A2.07,2.07,0,0,1,294.75,391.12Z" transform="translate(8.78 0)"/><path class="cls-2" d="M269.57,429.39a1.69,1.69,0,0,1-.12.36l0,.06,20.3,8a1.68,1.68,0,0,1,.27-.37Z" transform="translate(8.78 0)"/><path class="cls-2" d="M74.22,388.27h0l-10-5.61L48.9,374a1.72,1.72,0,0,1-.33.33L74.1,388.7A1.39,1.39,0,0,1,74.22,388.27Z" transform="translate(8.78 0)"/><path class="cls-2" d="M76.85,387.44a2.22,2.22,0,0,1,.42.25l30.16-28.16,34.77-32.46a1.74,1.74,0,0,1-.36-.3L103.46,362.6Z" transform="translate(8.78 0)"/><path class="cls-2" d="M141.84,326.77a1.41,1.41,0,0,1-.27-.37L48.66,372a1.68,1.68,0,0,1,.3.35Z" transform="translate(8.78 0)"/><path class="cls-2" d="M253,424l12.77,4.93a1.94,1.94,0,0,1,.12-.39l0,0-12.65-4.88A1.74,1.74,0,0,1,253,424Z" transform="translate(8.78 0)"/><path class="cls-2" d="M156.39,468.1h-7.28L250.2,424a1.61,1.61,0,0,1-.31-.39L148.78,467.73a1.45,1.45,0,0,1,.22.73h7.68l109.57-38.28a1.39,1.39,0,0,1-.28-.37Z" transform="translate(8.78 0)"/><path class="cls-2" d="M145.48,467.6l-114-13.22a1.56,1.56,0,0,1-.38.39L145.27,468l.06-.18C145.37,467.76,145.43,467.68,145.48,467.6Z" transform="translate(8.78 0)"/><path class="cls-2" d="M46.59,374.65a1.36,1.36,0,0,1-.3-.13L30.4,452l.14,0a1.66,1.66,0,0,1,.33.15L46.76,374.7Z" transform="translate(8.78 0)"/><path class="cls-2" d="M-.88,379.12l46.34-5.61a1.29,1.29,0,0,1,0-.44L1.93,378.34l-3,.37-7.17-9.44,0,0V358.41L45.43,373a1.24,1.24,0,0,1,.11-.42l-54-14.64-.32-.09V381.7l7.41-2.48L28.9,452.1a2,2,0,0,1,.47-.16Zm-7.4-9.1,6.68,8.81-6.68,2.24Z" transform="translate(8.78 0)"/><path class="cls-2" d="M30,455.16l1.59,19.91,0,.2H44.39L30.77,454.94A2.08,2.08,0,0,1,30,455.16Zm13.57,19.68H32l-1.56-19.48Z" transform="translate(8.78 0)"/><path class="cls-2" d="M29.74,455.16l-.08.4.28-.4Z" transform="translate(8.78 0)"/><path class="cls-2" d="M74.52,389.94,42.79,435.76,31.24,452.44a1.61,1.61,0,0,1,.3.4l43.35-62.6A1.8,1.8,0,0,1,74.52,389.94Z" transform="translate(8.78 0)"/><path class="cls-2" d="M280.21,378.06,294,388a2.19,2.19,0,0,1,.57-.16l-14-10.1A2.2,2.2,0,0,1,280.21,378.06Z" transform="translate(8.78 0)"/><path class="cls-2" d="M293.47,388.39a1.69,1.69,0,0,1,.49-.33l-30.84-7.21,14.32-3.39a1.5,1.5,0,0,1-.18-.41l-14.73,3.5a1.58,1.58,0,0,1,.29.68Z" transform="translate(8.78 0)"/><path class="cls-2" d="M237,290.71l24.7,89.22a1.84,1.84,0,0,1,.61.35l-24.81-89.61A2.11,2.11,0,0,1,237,290.71Z" transform="translate(8.78 0)"/><path class="cls-2" d="M204.55,314.53a1.73,1.73,0,0,1,.35.31l30.81-24.57a1.65,1.65,0,0,1-.31-.34Z" transform="translate(8.78 0)"/><path class="cls-2" d="M204.63,317l56.29,62.79a2.12,2.12,0,0,1,.74.12L205,316.69A2.57,2.57,0,0,1,204.63,317Z" transform="translate(8.78 0)"/><path class="cls-2" d="M66.05,233.92a1.59,1.59,0,0,1-.46-.51L13.36,263.66a1.51,1.51,0,0,1,.28.62Z" transform="translate(8.78 0)"/><path class="cls-2" d="M47.38,371.5,67.8,234.26a2,2,0,0,1-.54.07L46.91,371.07,12.78,266a2.05,2.05,0,0,1-.49.18L46.54,371.63A2.15,2.15,0,0,1,47.38,371.5Z" transform="translate(8.78 0)"/><path class="cls-2" d="M68.87,231.78l-.7-38.05,0-1.15h45.38l13,13.55L69.08,233.21l0,.1a1.77,1.77,0,0,1-.63.7h0l58.64-27.64.27-.13-13.57-14.1H67.64l0,1.67.7,37.52A1.78,1.78,0,0,1,68.87,231.78Z" transform="translate(8.78 0)"/><path class="cls-2" d="M289.66,475.27h3.82l-1-5.15Zm.8-.43,1.83-3.29.61,3.29Z" transform="translate(8.78 0)"/><path class="cls-2" d="M-7.94,264.26l-.82,1.43,0,21.22,4-.32Zm-.34,1.58,0-.1L-5.3,286.2l-3,.24Z" transform="translate(8.78 0)"/><path class="cls-3" d="M154,442.19a1.53,1.53,0,0,0,.77,2l.27.13.19.05a2,2,0,0,0,2.29-.95,1.57,1.57,0,0,0-1-2.14,2.11,2.11,0,0,0-2.12.41,1.93,1.93,0,0,0-.28.36Z" transform="translate(8.78 0)"/><path class="cls-3" d="M158.75,321.68a2,2,0,0,0,2.48-.9v0a1.39,1.39,0,0,0,.12-.71.19.19,0,0,0,0-.08,1.6,1.6,0,0,0-.11-.43,2,2,0,0,0-.3-.42,1.55,1.55,0,0,0-.27-.24,2,2,0,0,0-.48-.25,2.1,2.1,0,0,0-1.58.07,1.58,1.58,0,0,0-.36.2,1.72,1.72,0,0,0-.54.63,1.42,1.42,0,0,0,0,1.14,1.5,1.5,0,0,0,.22.39A1.85,1.85,0,0,0,158.75,321.68Z" transform="translate(8.78 0)"/><path class="cls-3" d="M31.44,454.38c0-.08.1-.15.14-.23a1.41,1.41,0,0,0,0-1.31,1.61,1.61,0,0,0-.3-.4,2.11,2.11,0,0,0-.37-.28,1.66,1.66,0,0,0-.33-.15l-.14,0a2.15,2.15,0,0,0-1.5.13,1.72,1.72,0,0,0-.84.8,1.58,1.58,0,0,0,1,2.15,2.05,2.05,0,0,0,.64.11H30a2.08,2.08,0,0,0,.82-.22l.29-.17A1.56,1.56,0,0,0,31.44,454.38Z" transform="translate(8.78 0)"/><path class="cls-3" d="M77.87,388.77a1.58,1.58,0,0,0-.6-1.08,2.22,2.22,0,0,0-.42-.25l-.15-.07a2,2,0,0,0-2.41.79.33.33,0,0,0-.06.1h0a1.39,1.39,0,0,0-.12.43,1.46,1.46,0,0,0,.42,1.24,1.8,1.8,0,0,0,.37.3,2.53,2.53,0,0,0,.37.18,2.21,2.21,0,0,0,1,.09,2,2,0,0,0,.94-.38,1.79,1.79,0,0,0,.52-.61,1.73,1.73,0,0,0,.11-.32A1.55,1.55,0,0,0,77.87,388.77Z" transform="translate(8.78 0)"/><path class="cls-3" d="M291.07,436.92a2,2,0,0,0-1.08.56,1.68,1.68,0,0,0-.27.37l0,.06a1.58,1.58,0,0,0,1,2.15,2,2,0,0,0,2.49-.9,1.58,1.58,0,0,0-1-2.15,2.11,2.11,0,0,0-.59-.11A2.18,2.18,0,0,0,291.07,436.92Z" transform="translate(8.78 0)"/><path class="cls-3" d="M141.84,326.77a1.74,1.74,0,0,0,.36.3,1.66,1.66,0,0,0,.4.2,2.13,2.13,0,0,0,2-.29,1.87,1.87,0,0,0,.51-.61,1.43,1.43,0,0,0,.1-.95A1.32,1.32,0,0,0,145,325a1.84,1.84,0,0,0-1-.79,2,2,0,0,0-2.48.91,1.43,1.43,0,0,0,.28,1.64Z" transform="translate(8.78 0)"/><path class="cls-3" d="M260.92,379.81a1.93,1.93,0,0,0-1.74,1,1.57,1.57,0,0,0,1,2.14,2,2,0,0,0,2.48-.9,1.45,1.45,0,0,0,.12-.84,1.58,1.58,0,0,0-.29-.68,1.66,1.66,0,0,0-.26-.27,1.84,1.84,0,0,0-.61-.35A2.12,2.12,0,0,0,260.92,379.81Z" transform="translate(8.78 0)"/><path class="cls-3" d="M235.26,288.45a1.43,1.43,0,0,0,.14,1.48,1.65,1.65,0,0,0,.31.34,1.91,1.91,0,0,0,1.25.44,2.11,2.11,0,0,0,.5,0,1.9,1.9,0,0,0,1.32-1,1.58,1.58,0,0,0-1.05-2.15,2.24,2.24,0,0,0-1-.1,2.83,2.83,0,0,0-.5.13A1.75,1.75,0,0,0,235.26,288.45Z" transform="translate(8.78 0)"/><path class="cls-3" d="M269.57,429.39a1.51,1.51,0,0,0-.52-1.42,1.59,1.59,0,0,0-.41-.26l-.23-.11a2,2,0,0,0-2.45.86l0,0a1.94,1.94,0,0,0-.12.39,1.46,1.46,0,0,0,.16.92,1.39,1.39,0,0,0,.28.37,1.79,1.79,0,0,0,.72.46,2,2,0,0,0,2.45-.83l0-.06A1.69,1.69,0,0,0,269.57,429.39Z" transform="translate(8.78 0)"/><path class="cls-3" d="M205,316.69a1.48,1.48,0,0,0,.16-.27,1.45,1.45,0,0,0-.22-1.58,1.73,1.73,0,0,0-.35-.31,1.76,1.76,0,0,0-.47-.25,2,2,0,0,0-2.48.9,1.56,1.56,0,0,0-.12.81,1.69,1.69,0,0,0,1.16,1.33,2.18,2.18,0,0,0,.61.11,2,2,0,0,0,1.38-.41A2.57,2.57,0,0,0,205,316.69Z" transform="translate(8.78 0)"/><path class="cls-3" d="M198.91,380h0a2,2,0,0,0-.67.27,1.72,1.72,0,0,0-.49.44,1.78,1.78,0,0,0-.17.27l-.06.18a1.58,1.58,0,0,0,1.11,2,2,2,0,0,0,2.48-.9,1.58,1.58,0,0,0-1-2.14,2.18,2.18,0,0,0-.61-.11A2.07,2.07,0,0,0,198.91,380Z" transform="translate(8.78 0)"/><path class="cls-3" d="M295.6,388l-.09,0-.14,0a2.45,2.45,0,0,0-.76,0,2.19,2.19,0,0,0-.57.16l-.08,0a1.69,1.69,0,0,0-.49.33,1.8,1.8,0,0,0-.35.47,1.48,1.48,0,0,0,.41,1.78,1.62,1.62,0,0,0,.4.26l.23.11a2,2,0,0,0,.59.11,2.07,2.07,0,0,0,.5,0,1.86,1.86,0,0,0,1.39-1A1.58,1.58,0,0,0,295.6,388Z" transform="translate(8.78 0)"/><path class="cls-3" d="M250.86,424.44A2.11,2.11,0,0,0,253,424a1.74,1.74,0,0,0,.27-.38l0,0a1.58,1.58,0,0,0-1-2.15,2,2,0,0,0-2.48.9,1.45,1.45,0,0,0,.07,1.36,1.61,1.61,0,0,0,.31.39A2.15,2.15,0,0,0,250.86,424.44Z" transform="translate(8.78 0)"/><path class="cls-3" d="M66.05,233.92a1.75,1.75,0,0,0,.52.29,2.33,2.33,0,0,0,.69.12,2,2,0,0,0,.54-.07,2.24,2.24,0,0,0,.62-.25,1.77,1.77,0,0,0,.63-.7l0-.1a1.42,1.42,0,0,0-.21-1.43,1.78,1.78,0,0,0-.5-.44,1.49,1.49,0,0,0-.36-.17,2,2,0,0,0-2.48.89,1.43,1.43,0,0,0,.06,1.35A1.59,1.59,0,0,0,66.05,233.92Z" transform="translate(8.78 0)"/><path class="cls-3" d="M45.42,373.07a1.29,1.29,0,0,0,0,.44,1.67,1.67,0,0,0,.83,1,1.36,1.36,0,0,0,.3.13l.17.05a2.12,2.12,0,0,0,1.81-.34,1.72,1.72,0,0,0,.33-.33,1.34,1.34,0,0,0,.17-.27,1.43,1.43,0,0,0-.11-1.43,1.68,1.68,0,0,0-.3-.35,2,2,0,0,0-.63-.37,2.39,2.39,0,0,0-.65-.11,2.15,2.15,0,0,0-.84.13,1.79,1.79,0,0,0-1,.88s0,0,0,0a1.24,1.24,0,0,0-.11.42A.34.34,0,0,0,45.42,373.07Z" transform="translate(8.78 0)"/><path class="cls-3" d="M13.54,265.2a1.41,1.41,0,0,0,.1-.92,1.51,1.51,0,0,0-.28-.62,1.92,1.92,0,0,0-.87-.6A2,2,0,0,0,10,264a1.57,1.57,0,0,0,1,2.14,2.15,2.15,0,0,0,1.23,0,2.05,2.05,0,0,0,.49-.18A1.77,1.77,0,0,0,13.54,265.2Z" transform="translate(8.78 0)"/><path class="cls-3" d="M177.23,290.24a2,2,0,0,0,2.48-.9,1.52,1.52,0,0,0-.68-2,3,3,0,0,0-.36-.17l-.26-.06a2,2,0,0,0-2.22,1,1.49,1.49,0,0,0,.49,1.84,2.13,2.13,0,0,0,.44.26Z" transform="translate(8.78 0)"/><path class="cls-3" d="M278.4,378.23a2,2,0,0,0,2.18-.47,1.84,1.84,0,0,0,.3-.43,1.57,1.57,0,0,0-1-2.14,2,2,0,0,0-2.48.9,1.47,1.47,0,0,0-.1,1,1.5,1.5,0,0,0,.18.41A1.75,1.75,0,0,0,278.4,378.23Z" transform="translate(8.78 0)"/><path class="cls-3" d="M148.78,467.73a1.8,1.8,0,0,0-1-.79l-.19-.05a2.08,2.08,0,0,0-.5-.07,2.27,2.27,0,0,0-.77.13,2.55,2.55,0,0,0-.43.23,1.76,1.76,0,0,0-.44.42c0,.08-.11.16-.15.24l-.06.18a1.58,1.58,0,0,0,1.11,2,2,2,0,0,0,2.47-.9,1.38,1.38,0,0,0,.15-.62A1.45,1.45,0,0,0,148.78,467.73Z" transform="translate(8.78 0)"/></svg>