<svg id="Layer_1" data-name="Layer 1" xmlns="http://www.w3.org/2000/svg" viewBox="0 0 475.27 305.57"><defs><style>.cls-1{fill:none;}.cls-2{fill:#3f7e85;}.cls-3{fill:#a1f6ff;}</style></defs><title>nodoshor</title><path class="cls-1" d="M96.81,290.78a1.78,1.78,0,0,1,.77-1l-3.4-14.31L87,306.34a.59.59,0,0,0,0,.08l10-13.83A2.15,2.15,0,0,1,96.81,290.78Z" transform="translate(0.24 -3.6)"/><path class="cls-1" d="M84.62,87.64a3,3,0,0,1,.17-.36L22.19,43.93a1.42,1.42,0,0,1-1.3,0l-.23-.14-13.23,114a1.68,1.68,0,0,1,.43.45L84.53,88.66A2.1,2.1,0,0,1,84.62,87.64Z" transform="translate(0.24 -3.6)"/><path class="cls-1" d="M50.6,263.24a1.83,1.83,0,0,1,.4-.66L6.94,161.5v7.27L45.23,278.35a1.4,1.4,0,0,1,.92-.15l4.92-12.78A2.11,2.11,0,0,1,50.6,263.24Z" transform="translate(0.24 -3.6)"/><path class="cls-1" d="M93,275.08a2,2,0,0,1-.9-2.48,1.58,1.58,0,0,1,2.15-1,1.93,1.93,0,0,1,1,1.74L158,217a2,2,0,0,1-.39-.88L95,211.79a2.12,2.12,0,0,1-.11.61,1.58,1.58,0,0,1-2.15,1,2,2,0,0,1-.9-2.48,1.58,1.58,0,0,1,2-1.1l-8-119.63a1.28,1.28,0,0,1-.31-.11,1.69,1.69,0,0,1-.61-.51l-51.58,77.1a2.11,2.11,0,0,1,.41,2.12,1.57,1.57,0,0,1-2.14,1,2,2,0,0,1-1-2.29L8.15,160c0,.06,0,.12-.05.19a1.84,1.84,0,0,1-.79,1l44.07,101.1a1.44,1.44,0,0,1,1.37-.06,2,2,0,0,1,.89,2.47,1.57,1.57,0,0,1-2.14,1l0,0-4.87,12.64a2,2,0,0,1,.86,2.45,1.75,1.75,0,0,1-.11.24L84.4,305.91a1.47,1.47,0,0,1,1.77-.41,1.85,1.85,0,0,1,.48.35l7.16-30.65A1.49,1.49,0,0,1,93,275.08Z" transform="translate(0.24 -3.6)"/><path class="cls-1" d="M32.84,166.35a.57.57,0,0,1,.13.08L84.65,89.19,41.42,128.46,8.09,158.74a2,2,0,0,1,.12.77l22.61,7.61A1.53,1.53,0,0,1,32.84,166.35Z" transform="translate(0.24 -3.6)"/><path class="cls-1" d="M327.25,172.88a1.9,1.9,0,0,1,.06,1.55,2.3,2.3,0,0,1-.23.4l38.55,35.7,31.58,29.23a1.9,1.9,0,0,1,1.24-.6l-9.29-119.84a1.94,1.94,0,0,1-.51-.48l-24.23,21.33Z" transform="translate(0.24 -3.6)"/><path class="cls-1" d="M300.89,115.93a2,2,0,0,1-.79.91l18.14,37.82-2.08-18.13-2.41-21a2.26,2.26,0,0,1-.43-.11,1.9,1.9,0,0,1-1.16-1.55L301,115.45A2.08,2.08,0,0,1,300.89,115.93Z" transform="translate(0.24 -3.6)"/><path class="cls-1" d="M319,155.66l69.4-37.5s0,0,0,0l-72.4-4.34a1.79,1.79,0,0,1-.13.6,1.9,1.9,0,0,1-1.54,1.17l4.6,40.12Z" transform="translate(0.24 -3.6)"/><path class="cls-1" d="M337.07,146.44l-17.3,9.35h0a1.9,1.9,0,0,1,1,2.47,1.92,1.92,0,0,1-.71.87l5,12.71a1.83,1.83,0,0,1,1.1.1,1.79,1.79,0,0,1,.7.51l60.51-53.26Z" transform="translate(0.24 -3.6)"/><path class="cls-1" d="M382.18,270.27l89.6,15.89a2.35,2.35,0,0,1,.33-.37l-19-11.4-53.27-31.88a1.86,1.86,0,0,1-1.44.42l-16.59,25.53A1.9,1.9,0,0,1,382.18,270.27Z" transform="translate(0.24 -3.6)"/><path class="cls-1" d="M282.46,125.91V81.79l-.06,0a1.91,1.91,0,0,1-1.09-1.22l-38.06.71a1.45,1.45,0,0,1-1.42.21l27.08,57.47Z" transform="translate(0.24 -3.6)"/><path class="cls-1" d="M314.76,111.91a1.82,1.82,0,0,1,.31.16l73.16-56.7L285,80.07a1.9,1.9,0,0,1-.14.66,1.81,1.81,0,0,1-.38.59l28.43,30.81A1.89,1.89,0,0,1,314.76,111.91Z" transform="translate(0.24 -3.6)"/><path class="cls-1" d="M241.11,78.43,210.76,26a1.48,1.48,0,0,1-.92-.11,1.8,1.8,0,0,1-.77-.75L104,59.29,240.71,79.64a2.09,2.09,0,0,1,.12-.69A2,2,0,0,1,241.11,78.43Z" transform="translate(0.24 -3.6)"/><path class="cls-1" d="M326.73,175.19h0l52.7,92.88a1.89,1.89,0,0,1,1.66-.11,1.82,1.82,0,0,1,.31.16l6.68-10.27,9.78-15.05h0l-.4.31.29-.37a1.89,1.89,0,0,1-.91-2.41,1.09,1.09,0,0,1,.08-.15L373,218Z" transform="translate(0.24 -3.6)"/><path class="cls-1" d="M386.06,36.82a1.88,1.88,0,0,1,.2,1.81,1.86,1.86,0,0,1-.89,1L389.3,53.9l8.33-30.83a.56.56,0,0,0-.05-.08Z" transform="translate(0.24 -3.6)"/><path class="cls-1" d="M45.65,282l-8.09,20.43a2.08,2.08,0,0,1,.56,1.08l45.8,3.67a2,2,0,0,1,.11-.59c0-.08.07-.15.1-.23L47.07,281.43A1.51,1.51,0,0,1,45.65,282Z" transform="translate(0.24 -3.6)"/><path class="cls-1" d="M101.53,57.84,95.92,11.5,23.1,41.75a2.25,2.25,0,0,1,0,1l77.45,15.89A1.74,1.74,0,0,1,101.53,57.84Z" transform="translate(0.24 -3.6)"/><path class="cls-1" d="M116.63,4.1H105.8l0,0-9.44,7.17.37,3L102,57.8h.11Z" transform="translate(0.24 -3.6)"/><polygon class="cls-1" points="0.43 299.24 0.43 301.68 3.72 301.07 0.43 299.24"/><polygon class="cls-1" points="209.53 0.56 209.43 0.5 188.84 0.5 189.07 3.48 209.53 0.56"/><path class="cls-1" d="M153.29,174.24l1-.62h0a2,2,0,0,1-.9-2.47,1.88,1.88,0,0,1,.61-.87l-4.35-12.71a1.37,1.37,0,0,1-1-.1,1.51,1.51,0,0,1-.61-.51L95.75,210.21Z" transform="translate(0.24 -3.6)"/><path class="cls-1" d="M87.35,89.65a1.58,1.58,0,0,1-1.08.6l8,119.83a1.87,1.87,0,0,1,.44.49l20.53-20.9,32.55-33.14a2.12,2.12,0,0,1,0-1.55,2.93,2.93,0,0,1,.19-.4l-32.45-34.76Z" transform="translate(0.24 -3.6)"/><path class="cls-1" d="M161.78,165.15,156.34,171a2.17,2.17,0,0,1,.07,1.59,1.92,1.92,0,0,1-.25.47l28.28,15.82Z" transform="translate(0.24 -3.6)"/><path class="cls-1" d="M85.1,86.9a1.46,1.46,0,0,1,1.24-.42L100.68,61a2.12,2.12,0,0,1-.34-1.81L22.88,43.25a1.76,1.76,0,0,1-.29.37L39.28,55.18Z" transform="translate(0.24 -3.6)"/><path class="cls-1" d="M86.78,86.61h0l.34-.31-.24.37a2,2,0,0,1,.79,2.41l-.07.15,24.84,26.62,35.82,38.37h0L102.71,61.34a1.43,1.43,0,0,1-1.43.11,1.2,1.2,0,0,1-.27-.16L92.39,76.63Z" transform="translate(0.24 -3.6)"/><path class="cls-1" d="M160.2,217.28a1.47,1.47,0,0,1-1.59.22,1.4,1.4,0,0,1-.26-.16L95.11,274l89.22-24.7a1.87,1.87,0,0,1,.11-.66,2.1,2.1,0,0,1,.33-.59Z" transform="translate(0.24 -3.6)"/><path class="cls-1" d="M95,211.29l62.58,4.34a2.06,2.06,0,0,1,.12-.6,1.67,1.67,0,0,1,1.33-1.17l-4-40.12H155l-60,37.5S95,211.27,95,211.29Z" transform="translate(0.24 -3.6)"/><path class="cls-1" d="M159.86,214a2,2,0,0,1,.9,2.48,1.76,1.76,0,0,1-.25.47l24.6,30.85a1.45,1.45,0,0,1,1.48-.14,1.79,1.79,0,0,1,.87,1l29.39-.47a1.91,1.91,0,0,1,1.65-.21l-30.82-56.53a1.52,1.52,0,0,1-2,.68,2,2,0,0,1-.9-2.48.31.31,0,0,1,0-.1l-28.93-16.19a1.48,1.48,0,0,1-.42.3l4,40.25A1.73,1.73,0,0,1,159.86,214Z" transform="translate(0.24 -3.6)"/><path class="cls-1" d="M445.45,47.46,454.81,27a1.85,1.85,0,0,1-.65-1.08l-53-3.67a1.79,1.79,0,0,1-.13.59,2.53,2.53,0,0,1-.12.23L443.8,48A1.92,1.92,0,0,1,445.45,47.46Z" transform="translate(0.24 -3.6)"/><polygon class="cls-1" points="105.25 0.5 94.2 0.5 96.44 7.19 105.25 0.5"/><polygon class="cls-1" points="0.43 52.31 19.92 39.25 0.43 40.81 0.43 52.31"/><path class="cls-2" d="M319.77,155.79l17.3-9.35,50.41-27.24L327,172.46a1.92,1.92,0,0,1,.28.42l37.17-32.71,24.23-21.33a1.89,1.89,0,0,1-.3-.68L319,155.66A2,2,0,0,1,319.77,155.79Z" transform="translate(0.24 -3.6)"/><path class="cls-2" d="M315.93,113.78l72.4,4.34a2.07,2.07,0,0,1,0-.5l-72.4-4.34A1.67,1.67,0,0,1,315.93,113.78Z" transform="translate(0.24 -3.6)"/><path class="cls-2" d="M301,115.45l11.16-1.57a1.74,1.74,0,0,1,0-.51L301,114.94A1.74,1.74,0,0,1,301,115.45Z" transform="translate(0.24 -3.6)"/><path class="cls-2" d="M318.86,155.67l-4.6-40.12a1.74,1.74,0,0,1-.51,0l2.41,21,2.08,18.13L300.1,116.84a1.86,1.86,0,0,1-.46.19l18.61,38.82A2.15,2.15,0,0,1,318.86,155.67Z" transform="translate(0.24 -3.6)"/><path class="cls-2" d="M397.86,242.8l-.11-.06-.29.37Z" transform="translate(0.24 -3.6)"/><path class="cls-2" d="M462.59,162.29,475,165.91v-.52l-12.24-3.56-.06.19A1.82,1.82,0,0,1,462.59,162.29Z" transform="translate(0.24 -3.6)"/><path class="cls-2" d="M389.16,119.32l9.29,119.84a2.07,2.07,0,0,1,.5,0l-9.27-119.63-.2-.06A1.41,1.41,0,0,1,389.16,119.32Z" transform="translate(0.24 -3.6)"/><path class="cls-2" d="M320.13,159.14a1.92,1.92,0,0,1-.46.21l5,12.67a1.56,1.56,0,0,1,.47-.17Z" transform="translate(0.24 -3.6)"/><path class="cls-2" d="M443.8,48,400.92,23.1a1.68,1.68,0,0,1-.3.4L443.5,48.38A1.9,1.9,0,0,1,443.8,48Z" transform="translate(0.24 -3.6)"/><path class="cls-2" d="M397.17,21.5l.28.16a.74.74,0,0,0,0-.14Z" transform="translate(0.24 -3.6)"/><path class="cls-2" d="M445.45,47.46a2.28,2.28,0,0,1,.41.11l.07,0,9.3-20.31a1.68,1.68,0,0,1-.42-.27Z" transform="translate(0.24 -3.6)"/><path class="cls-2" d="M401.17,22.28l53,3.67a2.07,2.07,0,0,1,0-.5l-53-3.67A2.07,2.07,0,0,1,401.17,22.28Z" transform="translate(0.24 -3.6)"/><path class="cls-2" d="M370.63,300.38h.52l9-28.78a2.08,2.08,0,0,1-.48-.11Z" transform="translate(0.24 -3.6)"/><path class="cls-2" d="M326.73,175.19a1.83,1.83,0,0,1-.42.26L379,268.37a1.9,1.9,0,0,1,.4-.3Z" transform="translate(0.24 -3.6)"/><path class="cls-2" d="M327.08,174.83a2.38,2.38,0,0,1-.35.36L373,218l23.91,22.15a1.57,1.57,0,0,1,.29-.42l-31.58-29.23Z" transform="translate(0.24 -3.6)"/><path class="cls-2" d="M381.4,268.12a1.78,1.78,0,0,1,.38.34l16.59-25.53a1.76,1.76,0,0,1-.49-.12h0l-9.78,15.05Z" transform="translate(0.24 -3.6)"/><path class="cls-2" d="M446.23,50.89l28.81,36v-.8L446.59,50.54A1.5,1.5,0,0,1,446.23,50.89Z" transform="translate(0.24 -3.6)"/><path class="cls-2" d="M443.51,50.31l-6.29,7.13a2.38,2.38,0,0,1,.35.36l6.26-7.09A1.76,1.76,0,0,1,443.51,50.31Z" transform="translate(0.24 -3.6)"/><path class="cls-2" d="M475,97.68V97L437.81,59.66a1.76,1.76,0,0,1-.26.44Z" transform="translate(0.24 -3.6)"/><path class="cls-2" d="M475,286.24l0,0,0,.05Z" transform="translate(0.24 -3.6)"/><path class="cls-2" d="M474.8,286l.24-1.75v-3.76l-.69,5.13A1.82,1.82,0,0,1,474.8,286Z" transform="translate(0.24 -3.6)"/><path class="cls-2" d="M400.47,240.75,475,182.19v-.63L451.58,200l-51.25,40.24L460.11,163a2,2,0,0,1-.41-.28L400,239.8A1.91,1.91,0,0,1,400.47,240.75Z" transform="translate(0.24 -3.6)"/><path class="cls-2" d="M436.09,300.38h1.48l34.14-12.26a1.83,1.83,0,0,1-.18-.46Z" transform="translate(0.24 -3.6)"/><path class="cls-2" d="M380.3,271.61l4,28.77h.5l-4-28.81A2.11,2.11,0,0,1,380.3,271.61Z" transform="translate(0.24 -3.6)"/><path class="cls-2" d="M399.81,242.51l53.27,31.88,19,11.4a2.13,2.13,0,0,1,.47-.31l-72.42-43.35A1.82,1.82,0,0,1,399.81,242.51Z" transform="translate(0.24 -3.6)"/><path class="cls-2" d="M471.61,286.49a2.55,2.55,0,0,1,.17-.33l-89.6-15.89c0,.05,0,.11-.05.17a2.28,2.28,0,0,1-.17.3l89.61,15.89A.74.74,0,0,1,471.61,286.49Z" transform="translate(0.24 -3.6)"/><path class="cls-2" d="M398,23.56a1.83,1.83,0,0,1-.39-.49L389.3,53.9l-3.93-14.31a1.56,1.56,0,0,1-.47.17l4,14.74a1.89,1.89,0,0,1,.79-.29Z" transform="translate(0.24 -3.6)"/><path class="cls-2" d="M386.06,36.82,397.58,23a2.21,2.21,0,0,1-.17-.57l-11.7,14A1.75,1.75,0,0,1,386.06,36.82Z" transform="translate(0.24 -3.6)"/><path class="cls-2" d="M285,80.07l103.21-24.7a1.7,1.7,0,0,1,.4-.61L285,79.57A2.07,2.07,0,0,1,285,80.07Z" transform="translate(0.24 -3.6)"/><path class="cls-2" d="M388.23,55.37l-73.16,56.7a2,2,0,0,1,.38.33l72.64-56.29A1.74,1.74,0,0,1,388.23,55.37Z" transform="translate(0.24 -3.6)"/><path class="cls-2" d="M312.93,112.13,284.5,81.32a2.31,2.31,0,0,1-.39.31l28.46,30.85A1.5,1.5,0,0,1,312.93,112.13Z" transform="translate(0.24 -3.6)"/><path class="cls-2" d="M250.48,300.38h1.64l62.48-20a1.7,1.7,0,0,1-.09-.5Z" transform="translate(0.24 -3.6)"/><path class="cls-2" d="M219.54,250.66l17.26,49.72h.53l-17.55-50.56a1.78,1.78,0,0,1-.13.64A2,2,0,0,1,219.54,250.66Z" transform="translate(0.24 -3.6)"/><path class="cls-2" d="M216.85,248.15l-29.39.47a2.15,2.15,0,0,1,.12.5l28.75-.46A1.94,1.94,0,0,1,216.85,248.15Z" transform="translate(0.24 -3.6)"/><path class="cls-2" d="M187.68,191.41l30.82,56.53.11,0a1.92,1.92,0,0,1,.93.82l95,30.47c0-.07,0-.13.05-.19a1.73,1.73,0,0,1,.15-.27l-95.6-30.65-31.28-57.37a2.14,2.14,0,0,1-.23.62Z" transform="translate(0.24 -3.6)"/><path class="cls-3" d="M460.26,163.06a1.88,1.88,0,0,0,2.33-.77,1.82,1.82,0,0,0,.15-.27l.06-.19a1.9,1.9,0,1,0-3.1.87,2,2,0,0,0,.41.28Z" transform="translate(0.24 -3.6)"/><path class="cls-3" d="M320.84,158.27a1.9,1.9,0,0,0-1-2.47h0a2,2,0,0,0-.82-.13h-.09a2.15,2.15,0,0,0-.61.18,1.88,1.88,0,0,0-.94,1,1.92,1.92,0,0,0,1.05,2.49,1.85,1.85,0,0,0,1.31,0,1.8,1.8,0,0,0,1.17-1.08Z" transform="translate(0.24 -3.6)"/><path class="cls-3" d="M472.11,285.79a2.35,2.35,0,0,0-.33.37,2.55,2.55,0,0,0-.17.33.74.74,0,0,0,0,.14,1.9,1.9,0,0,0,0,1,1.83,1.83,0,0,0,.18.46,1.86,1.86,0,0,0,.94.85,1.9,1.9,0,0,0,2.39-.87v-1.79l0-.05a1.94,1.94,0,0,0-.21-.29,1.82,1.82,0,0,0-.45-.38l-.26-.14a1.88,1.88,0,0,0-1.51,0A2.13,2.13,0,0,0,472.11,285.79Z" transform="translate(0.24 -3.6)"/><path class="cls-3" d="M398.45,239.16a1.9,1.9,0,0,0-1.24.6,1.57,1.57,0,0,0-.29.42,1.09,1.09,0,0,0-.08.15,1.89,1.89,0,0,0,.91,2.41l.11.06h0a1.76,1.76,0,0,0,.49.12,1.86,1.86,0,0,0,1.44-.42,1.82,1.82,0,0,0,.35-.38,1.58,1.58,0,0,0,.2-.36,1.91,1.91,0,0,0-.34-2,1.92,1.92,0,0,0-.7-.51,1.58,1.58,0,0,0-.37-.11A2.07,2.07,0,0,0,398.45,239.16Z" transform="translate(0.24 -3.6)"/><path class="cls-3" d="M454.16,26a1.85,1.85,0,0,0,.65,1.08,1.68,1.68,0,0,0,.42.27l.07,0a1.9,1.9,0,0,0,1.45-3.52,1.91,1.91,0,0,0-2.49,1,2,2,0,0,0-.13.59A2.07,2.07,0,0,0,454.16,26Z" transform="translate(0.24 -3.6)"/><path class="cls-3" d="M326.73,175.19a2.38,2.38,0,0,0,.35-.36,2.3,2.3,0,0,0,.23-.4,1.9,1.9,0,0,0-.06-1.55,1.92,1.92,0,0,0-.28-.42,1.79,1.79,0,0,0-.7-.51,1.83,1.83,0,0,0-1.1-.1,1.56,1.56,0,0,0-.47.17,1.94,1.94,0,0,0-.92,1,1.91,1.91,0,0,0,2.53,2.46,1.83,1.83,0,0,0,.42-.26Z" transform="translate(0.24 -3.6)"/><path class="cls-3" d="M388.09,56.11a1.9,1.9,0,1,0,2.62-1.78,2,2,0,0,0-1-.12,1.89,1.89,0,0,0-.79.29,1.86,1.86,0,0,0-.31.26,1.7,1.7,0,0,0-.4.61A1.74,1.74,0,0,0,388.09,56.11Z" transform="translate(0.24 -3.6)"/><path class="cls-3" d="M282.89,81.89a1.85,1.85,0,0,0,1.22-.26,2.31,2.31,0,0,0,.39-.31,1.81,1.81,0,0,0,.38-.59,1.9,1.9,0,0,0,.14-.66,2.07,2.07,0,0,0,0-.5,1.9,1.9,0,0,0-3.61-.28,2,2,0,0,0-.14.76l1.67,0Z" transform="translate(0.24 -3.6)"/><path class="cls-3" d="M282.4,81.77l.06,0V80.53l-1.15,0A1.91,1.91,0,0,0,282.4,81.77Z" transform="translate(0.24 -3.6)"/><path class="cls-3" d="M445.45,47.46a1.85,1.85,0,0,0-1.95.92,1.08,1.08,0,0,0-.12.24,1.86,1.86,0,0,0,.13,1.69,1.76,1.76,0,0,0,.32.4,2,2,0,0,0,.59.39,1.9,1.9,0,0,0,1.81-.21,1.5,1.5,0,0,0,.36-.35,2,2,0,0,0,.31-.48,1.91,1.91,0,0,0-1-2.45l-.07,0A2.28,2.28,0,0,0,445.45,47.46Z" transform="translate(0.24 -3.6)"/><path class="cls-3" d="M315.07,112.07a1.82,1.82,0,0,0-.31-.16,1.89,1.89,0,0,0-1.83.22,1.5,1.5,0,0,0-.36.35,1.61,1.61,0,0,0-.29.47,1.63,1.63,0,0,0-.11.42,1.74,1.74,0,0,0,0,.51,1.9,1.9,0,0,0,1.16,1.55,2.26,2.26,0,0,0,.43.11,1.74,1.74,0,0,0,.51,0,1.9,1.9,0,0,0,1.54-1.17,1.79,1.79,0,0,0,.13-.6,1.67,1.67,0,0,0,0-.5,2,2,0,0,0-.45-.88A2,2,0,0,0,315.07,112.07Z" transform="translate(0.24 -3.6)"/><path class="cls-3" d="M388.33,118.12s0,0,0,0a1.89,1.89,0,0,0,.3.68,1.94,1.94,0,0,0,.51.48,1.41,1.41,0,0,0,.32.17l.2.06a1.88,1.88,0,0,0,2.28-1.1,1.91,1.91,0,0,0-3.53-1.44,2.22,2.22,0,0,0-.13.61A2.07,2.07,0,0,0,388.33,118.12Z" transform="translate(0.24 -3.6)"/><path class="cls-3" d="M397.63,23.07a1.83,1.83,0,0,0,.39.49,2,2,0,0,0,.54.35,1.9,1.9,0,0,0,2.06-.41,1.68,1.68,0,0,0,.3-.4,2.53,2.53,0,0,0,.12-.23,1.79,1.79,0,0,0,.13-.59,2.07,2.07,0,0,0,0-.5,1.9,1.9,0,0,0-3.63-.35.32.32,0,0,1,0,.09.74.74,0,0,1,0,.14,2,2,0,0,0,0,.76,2.21,2.21,0,0,0,.17.57A.56.56,0,0,1,397.63,23.07Z" transform="translate(0.24 -3.6)"/><path class="cls-3" d="M437.22,57.44a1.82,1.82,0,0,0-.45-.26,1.9,1.9,0,1,0,.78,2.92,1.76,1.76,0,0,0,.26-.44h0a1.88,1.88,0,0,0-.24-1.86A2.38,2.38,0,0,0,437.22,57.44Z" transform="translate(0.24 -3.6)"/><path class="cls-3" d="M218.61,248l-.11,0a1.91,1.91,0,0,0-1.65.21,1.94,1.94,0,0,0-.52.51,2.08,2.08,0,0,0-.2.36,1.91,1.91,0,0,0,1,2.48,1.89,1.89,0,0,0,2.37-.84,2,2,0,0,0,.11-.2,1.78,1.78,0,0,0,.13-.64,1.88,1.88,0,0,0-1.17-1.84Z" transform="translate(0.24 -3.6)"/><path class="cls-3" d="M382.13,270.44c0-.06,0-.12.05-.17a1.9,1.9,0,0,0-.4-1.81,1.78,1.78,0,0,0-.38-.34,1.82,1.82,0,0,0-.31-.16,1.92,1.92,0,0,0-2.06.41,1.74,1.74,0,0,0-.42.63,1.9,1.9,0,0,0,1,2.48h.05a2.08,2.08,0,0,0,.48.11h.13a2.11,2.11,0,0,0,.5,0,2,2,0,0,0,1.16-.83A2.28,2.28,0,0,0,382.13,270.44Z" transform="translate(0.24 -3.6)"/><path class="cls-3" d="M314.59,279.27a1.83,1.83,0,0,0-.08.61,1.7,1.7,0,0,0,.09.5,1.88,1.88,0,0,0,1.08,1.18,1.9,1.9,0,0,0,1.44-3.52,1.89,1.89,0,0,0-2.33.77,1.73,1.73,0,0,0-.15.27C314.62,279.14,314.61,279.2,314.59,279.27Z" transform="translate(0.24 -3.6)"/><path class="cls-3" d="M300.89,115.93a2.08,2.08,0,0,0,.11-.48,1.74,1.74,0,0,0,0-.51,1.9,1.9,0,1,0-2.59,2,2,2,0,0,0,1.69-.13A2,2,0,0,0,300.89,115.93Z" transform="translate(0.24 -3.6)"/><path class="cls-3" d="M386.26,38.63a1.88,1.88,0,0,0-.2-1.81,1.75,1.75,0,0,0-.35-.37,1.61,1.61,0,0,0-.49-.3,1.9,1.9,0,1,0-1.44,3.51,1.81,1.81,0,0,0,1.12.1,1.56,1.56,0,0,0,.47-.17A1.86,1.86,0,0,0,386.26,38.63Z" transform="translate(0.24 -3.6)"/><path class="cls-2" d="M157.6,215.63,95,211.29a2.07,2.07,0,0,1,0,.5l62.59,4.34A2.07,2.07,0,0,1,157.6,215.63Z" transform="translate(0.24 -3.6)"/><path class="cls-2" d="M159.49,213.87l-4-40.25a1.62,1.62,0,0,1-.43.12l4,40.12A1.31,1.31,0,0,1,159.49,213.87Z" transform="translate(0.24 -3.6)"/><path class="cls-2" d="M161.78,165.15l22.66,23.72-28.28-15.82a3.27,3.27,0,0,1-.24.27l28.93,16.19a1.66,1.66,0,0,1,.26-.45L161.74,164.6l-5.61,6a2.12,2.12,0,0,1,.21.36Z" transform="translate(0.24 -3.6)"/><path class="cls-2" d="M87.12,86.3l-.34.31.1.06Z" transform="translate(0.24 -3.6)"/><path class="cls-2" d="M30.7,167.39c0-.09.08-.18.12-.27L8.21,159.51a2.2,2.2,0,0,1-.06.5l22.5,7.57C30.67,167.52,30.68,167.46,30.7,167.39Z" transform="translate(0.24 -3.6)"/><path class="cls-2" d="M84.65,89.19,33,166.43a1.93,1.93,0,0,1,.36.28l51.58-77.1a2,2,0,0,1-.38-1L7.86,158.31a2,2,0,0,1,.23.43l33.33-30.28Z" transform="translate(0.24 -3.6)"/><path class="cls-2" d="M94.3,210.08l-8-119.83a1.64,1.64,0,0,1-.44,0l8,119.63a1.27,1.27,0,0,1,.18.06A1.91,1.91,0,0,1,94.3,210.08Z" transform="translate(0.24 -3.6)"/><path class="cls-2" d="M94.74,210.57a1.81,1.81,0,0,1,.26.68l60-37.5a1.49,1.49,0,0,1-.71-.13l-1,.62-57.54,36L148.06,157a1.76,1.76,0,0,1-.24-.42l-32.55,33.14Z" transform="translate(0.24 -3.6)"/><path class="cls-2" d="M154,170.27a1.71,1.71,0,0,1,.4-.21L150,157.39a1.32,1.32,0,0,1-.41.17Z" transform="translate(0.24 -3.6)"/><path class="cls-2" d="M87.38,307.91l-.25-.16,0,.14Z" transform="translate(0.24 -3.6)"/><path class="cls-2" d="M47.07,281.43l37.06,24.88a1.87,1.87,0,0,1,.27-.4L47.33,281A2.11,2.11,0,0,1,47.07,281.43Z" transform="translate(0.24 -3.6)"/><path class="cls-2" d="M83.92,307.13l-45.8-3.67a2.75,2.75,0,0,1,0,.5l45.8,3.67A2.07,2.07,0,0,1,83.92,307.13Z" transform="translate(0.24 -3.6)"/><path class="cls-2" d="M45.65,282a1.65,1.65,0,0,1-.36-.11l-.06,0-8,20.31a1.84,1.84,0,0,1,.37.27Z" transform="translate(0.24 -3.6)"/><path class="cls-2" d="M86.77,86.6h0l5.61-10L101,61.29a1.52,1.52,0,0,1-.33-.34L86.34,86.48A1.47,1.47,0,0,1,86.77,86.6Z" transform="translate(0.24 -3.6)"/><path class="cls-2" d="M87.6,89.23a2.12,2.12,0,0,1-.25.42l28.16,30.17L148,154.58a2.6,2.6,0,0,1,.3-.36l-35.82-38.37Z" transform="translate(0.24 -3.6)"/><path class="cls-2" d="M148.27,154.22a1.5,1.5,0,0,1,.36-.26L103.06,61a1.43,1.43,0,0,1-.35.3Z" transform="translate(0.24 -3.6)"/><path class="cls-2" d="M51.07,265.42,46.15,278.2a1.43,1.43,0,0,1,.39.11l0,0,4.87-12.64A2.07,2.07,0,0,1,51.07,265.42Z" transform="translate(0.24 -3.6)"/><path class="cls-2" d="M6.94,168.77V161.5L51,262.58a1.79,1.79,0,0,1,.38-.31L7.31,161.17a1.5,1.5,0,0,1-.73.21v7.68L44.86,278.63a1.44,1.44,0,0,1,.37-.28Z" transform="translate(0.24 -3.6)"/><path class="cls-2" d="M7.43,157.86l13.23-114a1.56,1.56,0,0,1-.39-.38L7,157.66l.18.06Z" transform="translate(0.24 -3.6)"/><path class="cls-2" d="M100.38,59c0-.1.09-.2.14-.3L23.07,42.78s0,.1,0,.14a1.66,1.66,0,0,1-.15.33l77.46,15.89A1.36,1.36,0,0,1,100.38,59Z" transform="translate(0.24 -3.6)"/><path class="cls-2" d="M95.92,11.5l5.61,46.34a1.57,1.57,0,0,1,.43,0L96.7,14.32l-.37-3,9.44-7.17,0,0h10.83L102.07,57.81a1.63,1.63,0,0,1,.42.11l14.64-54,.09-.32H93.34L95.82,11,22.94,41.29a1.79,1.79,0,0,1,.16.46ZM105,4.1,96.2,10.79,94,4.1Z" transform="translate(0.24 -3.6)"/><path class="cls-2" d="M19.88,42.33,0,43.93h-.2V56.77L20.09,43.15A2.07,2.07,0,0,1,19.88,42.33ZM.19,55.9V44.41l19.49-1.56Z" transform="translate(0.24 -3.6)"/><path class="cls-2" d="M19.87,42.12,19.48,42l.39.28Z" transform="translate(0.24 -3.6)"/><path class="cls-2" d="M85.1,86.9,39.28,55.18,22.59,43.62a1.72,1.72,0,0,1-.4.31l62.6,43.35A1.66,1.66,0,0,1,85.1,86.9Z" transform="translate(0.24 -3.6)"/><path class="cls-2" d="M97,292.59,87,306.42a1.85,1.85,0,0,1,.15.57l10.11-14A1.8,1.8,0,0,1,97,292.59Z" transform="translate(0.24 -3.6)"/><path class="cls-2" d="M86.65,305.85a2.11,2.11,0,0,1,.33.49l7.2-30.83,3.4,14.31a1.27,1.27,0,0,1,.4-.17l-3.49-14.74a1.51,1.51,0,0,1-.68.29Z" transform="translate(0.24 -3.6)"/><path class="cls-2" d="M184.33,249.34,95.11,274a2.12,2.12,0,0,1-.35.61l89.61-24.81A1.67,1.67,0,0,1,184.33,249.34Z" transform="translate(0.24 -3.6)"/><path class="cls-2" d="M160.51,216.93a1.76,1.76,0,0,1-.31.35l24.57,30.81a2,2,0,0,1,.34-.31Z" transform="translate(0.24 -3.6)"/><path class="cls-2" d="M158,217,95.23,273.3a2.34,2.34,0,0,1-.12.74l63.24-56.7A1.48,1.48,0,0,1,158,217Z" transform="translate(0.24 -3.6)"/><path class="cls-2" d="M241.11,78.43a1.74,1.74,0,0,1,.52-.46L211.37,25.74a1.56,1.56,0,0,1-.61.29Z" transform="translate(0.24 -3.6)"/><path class="cls-2" d="M103.54,59.77,240.77,80.18a2.35,2.35,0,0,1-.06-.54L104,59.29l105.1-34.12a2.72,2.72,0,0,1-.19-.5L103.4,58.92A2.2,2.2,0,0,1,103.54,59.77Z" transform="translate(0.24 -3.6)"/><path class="cls-2" d="M243.25,81.26l38.06-.71,1.15,0v45.38l-13.55,13L241.83,81.47l-.1,0a1.64,1.64,0,0,1-.7-.63h0l27.64,58.64.12.27,14.11-13.57V80l-1.67,0-37.52.7A1.71,1.71,0,0,1,243.25,81.26Z" transform="translate(0.24 -3.6)"/><path class="cls-2" d="M-.24,302.05v3.82l5.16-1Zm.43.79,3.29,1.83-3.29.61Z" transform="translate(0.24 -3.6)"/><path class="cls-2" d="M210.77,4.45l-1.43-.83-21.21,0,.31,4ZM209.2,4.1l.09.05L188.83,7.08l-.23-3Z" transform="translate(0.24 -3.6)"/><path class="cls-3" d="M32.84,166.35a1.53,1.53,0,0,0-2,.77c0,.09-.09.18-.12.27s0,.13-.05.19a2,2,0,0,0,1,2.29,1.57,1.57,0,0,0,2.14-1,2.11,2.11,0,0,0-.41-2.12,1.93,1.93,0,0,0-.36-.28A.57.57,0,0,0,32.84,166.35Z" transform="translate(0.24 -3.6)"/><path class="cls-3" d="M153.36,171.14a2,2,0,0,0,.9,2.47h0a1.49,1.49,0,0,0,.71.13h.08a1.62,1.62,0,0,0,.43-.12,1.48,1.48,0,0,0,.42-.3,3.27,3.27,0,0,0,.24-.27,1.92,1.92,0,0,0,.25-.47,2.17,2.17,0,0,0-.07-1.59,2.12,2.12,0,0,0-.21-.36,1.57,1.57,0,0,0-.63-.54,1.39,1.39,0,0,0-1.13,0,1.71,1.71,0,0,0-.4.21A1.88,1.88,0,0,0,153.36,171.14Z" transform="translate(0.24 -3.6)"/><path class="cls-3" d="M20.66,43.82l.23.14a1.42,1.42,0,0,0,1.3,0,1.72,1.72,0,0,0,.4-.31,1.76,1.76,0,0,0,.29-.37,1.66,1.66,0,0,0,.15-.33s0-.09,0-.14a2.25,2.25,0,0,0,0-1,1.79,1.79,0,0,0-.16-.46,1.72,1.72,0,0,0-.81-.85,1.58,1.58,0,0,0-2.14,1,2.07,2.07,0,0,0-.12.64v.2h0a2.07,2.07,0,0,0,.21.82,1.75,1.75,0,0,0,.18.29A1.56,1.56,0,0,0,20.66,43.82Z" transform="translate(0.24 -3.6)"/><path class="cls-3" d="M86.27,90.25a1.58,1.58,0,0,0,1.08-.6,2.12,2.12,0,0,0,.25-.42l.07-.15a2,2,0,0,0-.79-2.41l-.1-.06h0a1.51,1.51,0,0,0-1.67.3,1.66,1.66,0,0,0-.31.38,3,3,0,0,0-.17.36,2.1,2.1,0,0,0-.09,1,2,2,0,0,0,.38,1,1.69,1.69,0,0,0,.61.51,1.28,1.28,0,0,0,.31.11A1.64,1.64,0,0,0,86.27,90.25Z" transform="translate(0.24 -3.6)"/><path class="cls-3" d="M38.12,303.46a2.08,2.08,0,0,0-.56-1.08,1.84,1.84,0,0,0-.37-.27l-.06,0a1.58,1.58,0,0,0-2.15,1,2,2,0,0,0,.9,2.48,1.58,1.58,0,0,0,2.15-1,2.36,2.36,0,0,0,.11-.59A2.75,2.75,0,0,0,38.12,303.46Z" transform="translate(0.24 -3.6)"/><path class="cls-3" d="M148.26,154.22a2.6,2.6,0,0,0-.3.36,2.93,2.93,0,0,0-.19.4,2.12,2.12,0,0,0,0,1.55,1.76,1.76,0,0,0,.24.42,1.51,1.51,0,0,0,.61.51,1.37,1.37,0,0,0,1,.1,1.32,1.32,0,0,0,.41-.17,1.84,1.84,0,0,0,.79-1,2,2,0,0,0-.91-2.48,1.44,1.44,0,0,0-1.28,0,1.5,1.5,0,0,0-.36.26Z" transform="translate(0.24 -3.6)"/><path class="cls-3" d="M95.23,273.3a1.93,1.93,0,0,0-1-1.74,1.58,1.58,0,0,0-2.15,1,2,2,0,0,0,.9,2.48,1.49,1.49,0,0,0,.85.12,1.51,1.51,0,0,0,.68-.29,1.33,1.33,0,0,0,.27-.26,2.12,2.12,0,0,0,.35-.61A2.34,2.34,0,0,0,95.23,273.3Z" transform="translate(0.24 -3.6)"/><path class="cls-3" d="M186.59,247.64a1.45,1.45,0,0,0-1.48.14,2,2,0,0,0-.34.31,2.1,2.1,0,0,0-.33.59,1.87,1.87,0,0,0-.11.66,1.67,1.67,0,0,0,0,.5,1.85,1.85,0,0,0,1,1.32,1.58,1.58,0,0,0,2.15-1,2.35,2.35,0,0,0,0-1.5A1.79,1.79,0,0,0,186.59,247.64Z" transform="translate(0.24 -3.6)"/><path class="cls-3" d="M45.65,282a1.51,1.51,0,0,0,1.42-.52,2.11,2.11,0,0,0,.26-.4,1.75,1.75,0,0,0,.11-.24,2,2,0,0,0-.86-2.45l0,0a1.43,1.43,0,0,0-.39-.11,1.4,1.4,0,0,0-.92.15,1.44,1.44,0,0,0-.37.28,1.92,1.92,0,0,0-.47.72,2,2,0,0,0,.84,2.45l.06,0A1.65,1.65,0,0,0,45.65,282Z" transform="translate(0.24 -3.6)"/><path class="cls-3" d="M158.35,217.34a1.4,1.4,0,0,0,.26.16,1.47,1.47,0,0,0,1.59-.22,2.12,2.12,0,0,0,.56-.82,2,2,0,0,0-.9-2.48,1.73,1.73,0,0,0-.37-.11,1.31,1.31,0,0,0-.44,0,1.67,1.67,0,0,0-1.33,1.17,2.17,2.17,0,0,0-.09,1.1,2,2,0,0,0,.39.88A1.48,1.48,0,0,0,158.35,217.34Z" transform="translate(0.24 -3.6)"/><path class="cls-3" d="M95,211.29s0,0,0,0a1.81,1.81,0,0,0-.26-.68,1.87,1.87,0,0,0-.44-.49,1.91,1.91,0,0,0-.27-.16,1.27,1.27,0,0,0-.18-.06,1.58,1.58,0,0,0-2,1.1,2,2,0,0,0,.9,2.48,1.58,1.58,0,0,0,2.15-1,2.12,2.12,0,0,0,.11-.61A2.07,2.07,0,0,0,95,211.29Z" transform="translate(0.24 -3.6)"/><path class="cls-3" d="M87.07,308l0-.09,0-.14a2.16,2.16,0,0,0,0-.76,1.85,1.85,0,0,0-.15-.57.59.59,0,0,1,0-.08,2.11,2.11,0,0,0-.33-.49,1.85,1.85,0,0,0-.48-.35,1.47,1.47,0,0,0-1.77.41,1.87,1.87,0,0,0-.27.4c0,.08-.07.15-.1.23a2,2,0,0,0-.11.59,2.07,2.07,0,0,0,0,.5,1.9,1.9,0,0,0,1,1.4A1.58,1.58,0,0,0,87.07,308Z" transform="translate(0.24 -3.6)"/><path class="cls-3" d="M50.6,263.24a2.11,2.11,0,0,0,.47,2.18,2.07,2.07,0,0,0,.38.28l0,0a1.57,1.57,0,0,0,2.14-1,2,2,0,0,0-.89-2.47,1.44,1.44,0,0,0-1.37.06,1.79,1.79,0,0,0-.38.31A1.83,1.83,0,0,0,50.6,263.24Z" transform="translate(0.24 -3.6)"/><path class="cls-3" d="M241.11,78.43a2,2,0,0,0-.28.52,2.09,2.09,0,0,0-.12.69,2.35,2.35,0,0,0,.06.54,2.14,2.14,0,0,0,.26.62,1.64,1.64,0,0,0,.7.63l.1,0a1.45,1.45,0,0,0,1.42-.21,1.71,1.71,0,0,0,.45-.51,2,2,0,0,0,.17-.36,2,2,0,0,0-.9-2.48,1.44,1.44,0,0,0-1.34.06A1.74,1.74,0,0,0,241.11,78.43Z" transform="translate(0.24 -3.6)"/><path class="cls-3" d="M102,57.8a1.57,1.57,0,0,0-.43,0,1.74,1.74,0,0,0-1,.83c0,.1-.1.2-.14.3a1.36,1.36,0,0,0,0,.17,2.12,2.12,0,0,0,.34,1.81,1.52,1.52,0,0,0,.33.34,1.2,1.2,0,0,0,.27.16,1.55,1.55,0,0,0,1.78-.41,1.76,1.76,0,0,0,.36-.63,2.07,2.07,0,0,0,.12-.64,2.2,2.2,0,0,0-.14-.85,1.77,1.77,0,0,0-.87-1h0a1.63,1.63,0,0,0-.42-.11Z" transform="translate(0.24 -3.6)"/><path class="cls-3" d="M209.84,25.92a1.48,1.48,0,0,0,.92.11,1.56,1.56,0,0,0,.61-.29,1.88,1.88,0,0,0,.61-.86,2,2,0,0,0-.9-2.48,1.57,1.57,0,0,0-2.14,1,2.16,2.16,0,0,0-.06,1.23,2.72,2.72,0,0,0,.19.5A1.8,1.8,0,0,0,209.84,25.92Z" transform="translate(0.24 -3.6)"/><path class="cls-3" d="M184.8,189.61a2,2,0,0,0,.9,2.48,1.52,1.52,0,0,0,2-.68,2.11,2.11,0,0,0-.74-2.84,1.48,1.48,0,0,0-1.83.49,1.66,1.66,0,0,0-.26.45A.31.31,0,0,0,184.8,189.61Z" transform="translate(0.24 -3.6)"/><path class="cls-3" d="M96.81,290.78a2.15,2.15,0,0,0,.17,1.81,1.8,1.8,0,0,0,.3.37,1.54,1.54,0,0,0,.42.3,1.58,1.58,0,0,0,2.15-1,2,2,0,0,0-.9-2.47,1.37,1.37,0,0,0-1-.1,1.27,1.27,0,0,0-.4.17A1.78,1.78,0,0,0,96.81,290.78Z" transform="translate(0.24 -3.6)"/><path class="cls-3" d="M7.31,161.17a1.84,1.84,0,0,0,.79-1c0-.07,0-.13.05-.19a2.2,2.2,0,0,0,.06-.5,1.89,1.89,0,0,0-.35-1.2,1.68,1.68,0,0,0-.43-.45l-.23-.14L7,157.66a1.58,1.58,0,0,0-2,1.1,2,2,0,0,0,.9,2.48,1.6,1.6,0,0,0,.63.14A1.5,1.5,0,0,0,7.31,161.17Z" transform="translate(0.24 -3.6)"/></svg>