<svg xmlns="http://www.w3.org/2000/svg" viewBox="0 0 113.71 174.31"><defs><style>.cls-1{fill:#d07422;}.cls-2{fill:#754114;}.cls-3{fill:#9c571a;}.cls-4{fill:#d48b4d;}.cls-5{fill:#f3a5ae;}.cls-6{fill:#11201c;}.cls-7{fill:#ffe2d1;}</style></defs><title>dog_vectorRecurso 1</title><g id="Capa_2" data-name="Capa 2"><g id="OBJECTS"><path class="cls-1" d="M82.23,147.35s.08,0,.09,0h.05l.15-.06c.22-.1.6-.27,1.08-.53a34.34,34.34,0,0,0,4-2.56,39.56,39.56,0,0,0,5.21-4.63,35.7,35.7,0,0,0,2.56-3.06A33.79,33.79,0,0,0,97.7,133a33.39,33.39,0,0,0,1.88-3.79c.29-.64.53-1.3.76-2s.44-1.32.63-2,.35-1.31.5-2,.28-1.29.38-1.92c.24-1.26.33-2.47.46-3.6s.14-2.17.1-3.1,0-1.75-.06-2.41c-.09-1.35-.14-2.12-.14-2.12s.26.73.73,2c.26.64.46,1.44.75,2.35s.5,2,.8,3.13.48,2.44.61,3.82a20.84,20.84,0,0,1,.18,2.13c0,.73.1,1.48.08,2.24s0,1.56,0,2.35-.1,1.6-.21,2.41a37.06,37.06,0,0,1-.87,4.92,42.11,42.11,0,0,1-1.48,4.83,43.19,43.19,0,0,1-2,4.54,49.65,49.65,0,0,1-4.69,7.53,47.06,47.06,0,0,1-4.22,4.86c-.57.57-1,1-1.41,1.33l-.24.2L90,159l-.14.12Z"/><path class="cls-2" d="M63.69,99.06c-28-1.79-22.42,24-22.42,24v50.72l35.47.29c18.15,0,21.72-5.94,21.72-18.5C98.46,138.57,91.73,100.85,63.69,99.06Z"/><path class="cls-3" d="M44.91,169.44a6.75,6.75,0,0,0,0-.81v-52.9a11.9,11.9,0,0,1,23.78.62v41.9c0,4.56.06,8.24.17,11.19H90.34V97.21c0-15.4-14.8-31.69-30.23-31.69H62.4a39,39,0,0,0-39.06,39v64.94Z"/><path class="cls-4" d="M42.24,174.31a2.44,2.44,0,0,0,2.36-3.14,11.75,11.75,0,0,0-22.53,0,2.45,2.45,0,0,0,2.37,3.14Z"/><path class="cls-4" d="M89.64,174.31a1.8,1.8,0,0,0,1.75-2.2,11.76,11.76,0,0,0-23,0,1.8,1.8,0,0,0,1.75,2.2Z"/><path class="cls-4" d="M74,76.29H40.07a20.06,20.06,0,0,1-20-20V20.37a20.06,20.06,0,0,1,20-20H74a20.06,20.06,0,0,1,20,20V56.29A20.06,20.06,0,0,1,74,76.29Z"/><path class="cls-5" d="M48,68.41l.22,17.06A7.68,7.68,0,0,0,56,93h.22a7.7,7.7,0,0,0,7.46-7.92l-.21-16.68Z"/><path class="cls-6" d="M71,31.8c0,2.63,1.32,4.75,3,4.75s3-2.12,3-4.75S75.55,27,73.92,27,71,29.17,71,31.8Z"/><path class="cls-6" d="M37.08,32.55c0,2.63,1.32,4.76,3,4.76s3-2.13,3-4.76-1.33-4.75-3-4.75S37.08,29.92,37.08,32.55Z"/><path class="cls-3" d="M33.61,1.45S30.66.62,18.84,11.31,2.05,31,.68,43.91L.09,49.47a15,15,0,0,0,10.51,16h0a14.88,14.88,0,0,0,15.18-4.24l2.53-2.74a15.32,15.32,0,0,0,3.21-15.39L28.3,33.86A34.1,34.1,0,0,1,28.14,12Z"/><path class="cls-7" d="M78.35,55l-8-9.29c-4.66-5.4-7.21-8.29-7.21-15.42V0h-11V30.25c0,7.13-2.77,10-7.43,15.42L36.79,55a11.22,11.22,0,0,0-2.66,7.43v5.9A11.24,11.24,0,0,0,45.3,79.71C49.39,79.71,53,77,55.06,74h4.77c2,3,5.81,5.71,9.91,5.71A11.43,11.43,0,0,0,81.13,68.29v-5.9A11.39,11.39,0,0,0,78.35,55Z"/><path class="cls-3" d="M81.42,1.82S88,3.87,97.56,12.5c9.75,8.83,14.59,19.84,15.64,32.77l.46,5.58a15,15,0,0,1-10.9,15.73h0A14.89,14.89,0,0,1,87.68,62l-2.46-2.81a15.31,15.31,0,0,1-2.83-15.46l3.44-9.15a34.15,34.15,0,0,0,.7-21.9Z"/><path class="cls-6" d="M57.13,48.19h.5c.07,0-.5,0,.5,0h0c6,.14,11.24,3.88,7.56,10.21-6.8,11.68-12.67,5.83-16.94,0S50.13,48.33,57.13,48.19Z"/></g></g></svg>