<?xml version="1.0" encoding="utf-8"?>
<!-- Generator: Adobe Illustrator 24.0.3, SVG Export Plug-In . SVG Version: 6.00 Build 0)  -->
<svg version="1.1" id="Layer_1" xmlns="http://www.w3.org/2000/svg" xmlns:xlink="http://www.w3.org/1999/xlink" x="0px" y="0px"
	 viewBox="0 0 50 50" style="enable-background:new 0 0 50 50;" xml:space="preserve">
<style type="text/css">
	.st0{fill:#45ABB6;}
</style>
<g>
	<path class="st0" d="M36.7,8.4c0,0-2.6-2.4-5.4-3.6L31.2,5c2.8,1.2,5.3,3.5,5.4,3.6L36.7,8.4z"/>
	<path class="st0" d="M41,17.7l-0.3,0.1c-0.6-1.5-2.8-6.1-7.5-9.4l-0.1,0.2c4.7,3.2,6.9,7.9,7.5,9.3l-0.6,0.2
		c-0.2-0.4-1-2.4-1.7-3.3l-0.2,0.1c0.7,0.9,1.5,2.9,1.7,3.3l-0.4,0.1c-0.2-0.5-1.6-3.5-2.8-4.9l-0.2,0.1c1.1,1.4,2.5,4.3,2.8,4.8
		l-0.5,0.2c-0.2-0.6-1-2.6-2.1-3.8l-0.2,0.1c1.1,1.3,1.9,3.2,2.1,3.8l-1.9,0.8l0.1,0.2l4-1.6c0.1,0.2,0.1,0.3,0.1,0.3l0.2-0.1
		c0,0,0-0.1-0.1-0.3l0.3-0.1c0.9,2.2,1.1,3.8,1.1,3.9l0.2,0c0,0-0.2-1.7-1.1-3.9l1-0.4l-0.1-0.2l-1,0.4C39.8,14.2,37,9.3,31.1,6.4
		L31,6.6C36.8,9.5,39.6,14.3,41,17.7z"/>
	<rect x="30.4" y="5.9" transform="matrix(0.4418 -0.8971 0.8971 0.4418 10.7865 31.2375)" class="st0" width="0.2" height="2.1"/>
	<path class="st0" d="M39.4,22.7c0-0.1-0.3-2.3-1.1-3.7l-0.2,0.1c0.7,1.4,1,3.6,1,3.7L39.4,22.7z"/>
	<path class="st0" d="M35.3,36.9l-0.2-0.1c0,0-2.9,3.8-7.1,5.1l-0.7-1.5l-0.2,0.1l0.7,1.6l0.1,0l0,0.1C32.3,40.9,35.2,37,35.3,36.9z
		"/>
	<path class="st0" d="M40,32.4c0.7-2,1.1-3.7,1.1-3.7l-0.2,0c0,0.1-1.5,6.6-4.1,9L36,36.9c2.4-2.5,3.7-8.2,3.7-8.5l-0.2,0
		c0,0.1-1.3,5.9-3.7,8.4L34,35.4l-0.1,0.2l3.4,2.7c-1.1,1.3-4.6,5-8.5,6l0.1,0.2c2.5-0.7,4.8-2.4,6.3-3.8c1-0.9,1.9-1.8,2.3-2.3
		l0.3,0.2c-1.3,1.5-3.8,4.2-6.7,5.5l0.1,0.2c3-1.3,5.5-4,6.8-5.6l0.4,0.3c-1.5,1.8-4,4.4-6.8,5.6l0.1,0.2c2.8-1.2,5.3-3.8,6.9-5.6
		l0.5,0.4l0.1-0.2L38.6,39c0.9-1.1,1.4-1.8,1.4-1.9L39.8,37c0,0-0.5,0.8-1.4,1.8L38,38.5c0.5-0.6,0.8-1,0.8-1.1l-0.2-0.1
		c0,0-0.3,0.4-0.8,1l-0.3-0.2c0.1-0.2,0.2-0.3,0.2-0.3l-0.2-0.1c0,0-0.1,0.1-0.2,0.3L37,37.8C38.1,36.7,39.1,34.9,40,32.4z"/>
	<path class="st0" d="M31,46.3l0.1,0.2c6.3-2.5,10-8.3,10-8.4L40.9,38C40.9,38.1,37.2,43.8,31,46.3z"/>
	<path class="st0" d="M43.7,18.3l0.2-0.1c0-0.1-2.6-9.5-12.4-14.1l-0.1,0.2C41,8.9,43.6,18.2,43.7,18.3z"/>
	<path class="st0" d="M43.6,20.1c0,0-0.1-1-0.7-2.6c-0.6-1.5-1.7-3.9-3.9-6.7l-0.2,0.1c4.1,5.3,4.5,9.2,4.5,9.2L43.6,20.1z"/>
	<path class="st0" d="M41.7,33.5l0.2,0.1c0,0,1.7-4,1.7-9.8h-0.2c0,1.8-0.2,3.4-0.4,4.8l-0.5-0.1c0.1-0.6,0.1-1.2,0.1-1.9h-0.2
		c0,0.6-0.1,1.3-0.1,1.9l-2.9-0.4c0.3-1.6,0.1-3.5,0.1-3.6l-0.2,0c0,0,0.2,2-0.1,3.6l-1.5-0.2l0,0.2l4.7,0.7
		c-0.4,2.3-1.1,4.1-1.2,4.1l0.2,0.1c0,0,0.8-1.8,1.2-4.1l0.5,0.1C42.4,31.7,41.7,33.5,41.7,33.5z"/>
	<path class="st0" d="M44.4,28.6c-0.2,2.6-1.9,6.3-1.9,6.3l0.2,0.1c0,0,1.7-3.7,1.9-6.4L44.4,28.6z"/>
	<path class="st0" d="M43.3,30.3c0,0-0.3,2.8-2.3,6.3c-1.8,3.1-5.4,7.5-12.3,10.1l0.1,0.2c7-2.7,10.6-7,12.4-10.2
		c2-3.4,2.3-6.3,2.3-6.3L43.3,30.3z"/>
	<path class="st0" d="M36.4,37.2c2.5-2.3,3.9-8.2,3.9-8.5l-0.2,0c0,0.1-1.4,6.1-3.9,8.4L36.4,37.2z"/>
	<path class="st0" d="M41.3,30.3l-0.2,0c0,0-0.4,2.5-1.1,3.6l0.2,0.1C40.9,32.9,41.3,30.4,41.3,30.3z"/>
	<path class="st0" d="M15.9,2.8L16,3.2c-0.6,0.1-1.2,0.3-1.9,0.5l0.1,0.2c0.6-0.2,1.2-0.3,1.9-0.5l0,0.1l0.2-0.1l0-0.1
		c7.2-1.5,11.8,0.5,11.8,0.5l0.1-0.2c0,0-1.4-0.6-3.8-0.9c-1.9-0.2-4.7-0.3-8.1,0.4l-0.1-0.4c4.9-1.1,9-0.3,9.1-0.3l0-0.2
		c-0.1,0-6.5-1.2-12.8,1.4l0.1,0.2C13.7,3.4,14.8,3.1,15.9,2.8z"/>
	<path class="st0" d="M14.8,4.4c-0.1,0-2.1,0.5-5.8,2.9l0.1,0.2c3.6-2.3,5.7-2.8,5.7-2.8L14.8,4.4z"/>
	<path class="st0" d="M28.6,8.8c0,0-2.1-1-4.1-1.2l0.5-2.9c0.5,0.1,0.9,0.2,0.9,0.2l0-0.2c0,0-0.4-0.1-0.9-0.2l0.1-0.5
		c0.1,0,0.1,0,0.1,0l0-0.2c-0.1,0-5.4-0.8-9.6,0.5l0.1,0.2c3.6-1.1,7.9-0.7,9.2-0.5l-0.1,0.5C23,4.1,19.4,3.8,17,4.8l0,0.1l-0.1,0
		L17.2,6c-0.8,0.2-1.7,0.5-2.6,0.9l-0.5-1.1C15.3,5.2,16.3,5,16.3,5l-0.1-0.2c0,0-1.1,0.3-2.3,0.7L13.8,5l-0.2,0.1l0.2,0.5
		c-0.6,0.2-1.1,0.5-1.6,0.8l0.1,0.2c0.5-0.3,1-0.6,1.6-0.8l1,2.5l0.1,0l0,0.1c4.7-1.9,8.9-1.1,9.2-1l-0.2,1.3l0.2,0l0.1-0.9
		C26.5,8,28.5,9,28.5,9L28.6,8.8z M24.5,6.4c-0.1,0-3.6-0.5-6.9,0.2l-0.1-0.5c4-0.9,7-0.1,7.1-0.1L24.5,6.4z M17.1,4.9
		C19.6,4,23,4.4,24.7,4.6l-0.2,1.2c-0.2-0.1-1.3-0.3-2.9-0.4c-1.1,0-2.5,0.1-4.2,0.4L17.1,4.9z M17.2,6.2l0.1,0.5
		c-0.9,0.2-1.7,0.5-2.5,1L14.6,7C15.5,6.7,16.4,6.4,17.2,6.2z M17.4,6.8l0.1,0.5c-0.8,0.2-1.6,0.4-2.5,0.8L15,7.8
		C15.7,7.4,16.5,7.1,17.4,6.8z M17.8,7.3l-0.1-0.5c3.2-0.7,6.7-0.2,6.8-0.2l-0.1,0.5C24,7.1,21.3,6.6,17.8,7.3z"/>
	<path class="st0" d="M27.5,9.4c-0.1,0-1.9-0.8-2.8-0.8v0.2c0.9,0,2.7,0.8,2.8,0.8L27.5,9.4z"/>
	<path class="st0" d="M22,45.8c2.4,0,4.7-0.6,4.7-0.6L26.6,45c0,0-2.3,0.6-4.7,0.6v-0.3h-0.2v0.3c-0.1,0-0.2,0-0.3,0l0,0.2
		c0.1,0,0.2,0,0.3,0v0.5c-0.5,0-1,0-1.5,0l0,0.2c0.4,0,0.8,0,1.2,0c0.1,0,0.2,0,0.3,0v0.1h0.2v-0.1c2.3-0.1,4-0.6,4-0.6l-0.1-0.2
		c0,0-1.7,0.5-4,0.5v-0.5C21.9,45.8,22,45.8,22,45.8z"/>
	<path class="st0" d="M18.4,46.8l0,0.2c1.1,0.1,2.2,0.2,3.2,0.2c3.4,0,6-0.7,6-0.7l-0.1-0.2C27.5,46.3,23.4,47.4,18.4,46.8z"/>
	<path class="st0" d="M24.3,47.9l0-0.2c0,0-4.6,0.4-7.3-0.3l-0.1,0.2c1.3,0.4,3.1,0.5,4.6,0.5C23,48,24.3,47.9,24.3,47.9z"/>
	<path class="st0" d="M19.2,48.3l0,0.2c0.9,0.1,1.7,0.2,2.6,0.2c2.8,0,5.2-0.6,5.2-0.6l-0.1-0.2C26.9,47.9,23,48.9,19.2,48.3z"/>
	<path class="st0" d="M14.4,45l-0.1,0.2c0.9,0.5,2.5,0.9,3.7,1.1L17.9,47l0.2,0l0.1-0.7c0.7,0.1,1.2,0.2,1.3,0.2l0-0.2
		c0,0-0.5-0.1-1.3-0.2l0.2-1.1c0.6,0.1,1.1,0.2,1.5,0.2l-0.1,1.4l0.2,0l0.1-1.4c0.4,0,0.6,0,0.8,0c0.2,0,0.3,0,0.3,0l0-0.2
		c0,0-0.9,0.1-2.8-0.3l0.1-0.5c1.2,0.2,2,0.2,2.1,0.2v-0.2c0,0-0.8,0-2-0.2l0.1-0.4c0.4,0.1,0.7,0.1,0.9,0.1c0.2,0,0.3,0,0.3,0
		l0-0.2c0,0-0.6,0.1-1.1-0.1l0-0.3l-0.1,0l0-0.1c0,0-3.4-0.5-5.3-1.8l-0.1,0.2c1.7,1.2,4.7,1.7,5.3,1.8L18.4,44
		c-1.1-0.2-2.4-0.5-3.8-1.2L14.5,43c1.4,0.6,2.7,1,3.8,1.2l-0.1,0.5c-1.6-0.3-3.9-1-6.9-2.3l-0.1,0.2c3,1.3,5.3,2,7,2.3L18,46
		C16.9,45.8,15.3,45.5,14.4,45z"/>
	<path class="st0" d="M31.8,5.9l-0.1,0.2c6.4,3.1,9.3,9.9,9.4,10l0.2-0.1C41.2,15.9,38.3,9,31.8,5.9z"/>
</g>
</svg>
