<svg xmlns="http://www.w3.org/2000/svg" viewBox="0 0 164.36 215.28"><defs><style>.cls-1{fill:#45abb6;}</style></defs><title>ts_logoAsset 3</title><g id="Layer_2" data-name="Layer 2"><g id="Tipografía"><path class="cls-1" d="M127.58,29.44c-.12-.11-12-11.11-25-16.65l-.39.92c12.86,5.47,24.57,16.36,24.69,16.47Z"/><path class="cls-1" d="M147.49,72.37l-1.17.46C143.55,66,133.56,44.52,111.53,29.4l-.57.82c21.82,15,31.7,36.2,34.43,43l-2.73,1.07c-.72-1.73-4.67-11-7.81-15.42l-.82.58c3,4.21,7,13.46,7.7,15.2l-1.68.66c-1.07-2.29-7.56-16-12.94-22.5l-.77.63c5.26,6.36,11.64,19.81,12.78,22.24l-2.25.88c-1-2.57-4.73-11.77-9.76-17.72l-.77.64c4.95,5.85,8.63,14.94,9.6,17.45l-8.88,3.48.36.93,18.33-7.19c.3.77.45,1.21.46,1.24l.95-.31s-.17-.49-.47-1.3l1.16-.45a85.94,85.94,0,0,1,4.93,17.88l1-.12a86,86,0,0,0-5-18.13l4.68-1.83-.36-.94L148.41,72c-6.27-15.92-19.5-38.15-46.7-51.74l-.45.89C128.19,34.62,141.28,56.62,147.49,72.37Z"/><rect class="cls-1" x="98.59" y="18.04" width="1" height="9.56" transform="translate(34.84 101.64) rotate(-63.78)"/><path class="cls-1" d="M140.25,95.63c-.06-.44-1.43-10.76-4.88-17.21l-.88.47c3.36,6.29,4.75,16.76,4.77,16.87Z"/><path class="cls-1" d="M121.11,161l-.8-.59c-.13.17-13.3,17.7-32.88,23.71l-3.06-7-.92.4L86.69,185l.46-.2.14.48C107.43,179.27,121,161.22,121.11,161Z"/><path class="cls-1" d="M143,140.1a159,159,0,0,0,5-17.1l-1-.22c-.06.31-6.75,30.39-18.69,41.46l-4.1-3.22c11-11.5,17-37.84,17.26-39l-1-.22c-.06.27-6.19,27.3-17.07,38.56l-8.33-6.55-.61.78,15.54,12.23C125,172.75,109,189.79,91,194.59l.26,1c11.52-3.08,22.13-11.11,29-17.3a124.28,124.28,0,0,0,10.56-10.78l1.32,1c-5.9,7.11-17.31,19.2-30.92,25.33l.41.92c13.79-6.22,25.33-18.45,31.3-25.63l2,1.57c-7,8.43-18.5,20.32-31.22,25.62l.38.92c12.91-5.38,24.54-17.41,31.62-25.92l2.33,1.82.61-.78-2.3-1.81c4-4.92,6.43-8.49,6.49-8.58l-.83-.56c-.07.1-2.45,3.64-6.44,8.52l-2-1.57c2.35-2.89,3.69-4.8,3.73-4.86l-.82-.57c0,.06-1.37,1.95-3.7,4.81l-1.31-1c.66-.79,1-1.26,1.05-1.28l-.79-.62s-.39.5-1,1.28l-1.56-1.23C134.16,160.17,138.82,151.85,143,140.1Z"/><path class="cls-1" d="M101.27,204.27l.37.93c29-11.54,46.14-38.29,46.32-38.56l-.85-.54C146.94,166.37,129.93,192.85,101.27,204.27Z"/><path class="cls-1" d="M159.75,75.34l1-.25c-.12-.44-12.12-43.89-57.13-65.18l-.43.9C147.74,31.9,159.63,74.91,159.75,75.34Z"/><path class="cls-1" d="M159.31,83.29a51.82,51.82,0,0,0-3.25-12.07c-2.58-6.9-7.77-17.85-17.82-30.83l-.79.61c19.05,24.6,20.84,42.21,20.86,42.38Z"/><path class="cls-1" d="M150.71,145.17l.92.39c.08-.18,7.68-18.38,7.68-45.14h-1a140.61,140.61,0,0,1-1.76,22.19l-2.23-.32a64.25,64.25,0,0,0,.63-8.69h-1a62.32,62.32,0,0,1-.62,8.55l-13.52-2c1.58-7.28.49-16.33.44-16.72l-1,.12c0,.1,1.13,9.32-.44,16.45l-7.06-1-.14,1,21.57,3.11A80.21,80.21,0,0,1,147.87,142l.91.42a81.86,81.86,0,0,0,5.4-19.12l2.2.32A106.6,106.6,0,0,1,150.71,145.17Z"/><path class="cls-1" d="M163.36,122.85c-1.09,12.17-8.75,29-8.82,29.18l.91.42c.07-.17,7.8-17.17,8.91-29.51Z"/><path class="cls-1" d="M158.31,130.5c0,.13-1.55,13.14-10.59,28.87-8.33,14.51-25,34.37-56.74,46.6l.36.93c32.09-12.34,48.86-32.41,57.28-47.08,9.12-15.9,10.67-29.08,10.69-29.21Z"/><path class="cls-1" d="M126.49,162.07c11.66-10.43,17.94-37.9,18.2-39.07l-1-.22c-.06.28-6.47,28.33-17.89,38.55Z"/><path class="cls-1" d="M148.82,130.64l-1-.16c0,.11-1.86,11.59-4.92,16.6l.86.52C146.93,142.43,148.74,131.11,148.82,130.64Z"/><path class="cls-1" d="M32,3.82l.44,1.76c-2.77.62-5.62,1.34-8.56,2.21l.28,1c2.93-.86,5.76-1.58,8.53-2.2l.15.6,1-.25-.14-.57c33-7.08,54.29,2.29,54.52,2.4l.41-.91c-.06,0-6.55-2.94-17.72-4.37A111.22,111.22,0,0,0,33.39,5.37l-.45-1.76a118.69,118.69,0,0,1,41.78-1.4l.19-1c-.3-.06-29.86-5.38-59,6.58l.37.93A98.54,98.54,0,0,1,32,3.82Z"/><path class="cls-1" d="M26.64,11.27c-.4.09-9.82,2.23-26.64,13.17l.54.83c16.65-10.81,26.22-13,26.31-13Z"/><path class="cls-1" d="M90.5,31.23c-.1-.05-9.55-4.7-19.08-5.51l2.1-13.55c2.54.39,4.09.71,4.16.72l.2-1c-.06,0-1.64-.34-4.2-.73l.39-2.51.67.1.15-1c-.24,0-24.9-3.85-44.48,2.1l.29,1c16.44-5,36.55-3,42.38-2.3L72.69,11c-8.25-1.19-24.58-2.7-36,1.76l.18.46-.48.13,1.33,4.92a84.82,84.82,0,0,0-12.12,3.92l-2.09-5.16a88.13,88.13,0,0,1,10.3-3.32l-.24-1a87.55,87.55,0,0,0-10.43,3.36l-.93-2.29-.92.37.92,2.3a44.69,44.69,0,0,0-7.43,3.79l.55.83a45.36,45.36,0,0,1,7.26-3.7l4.71,11.68.46-.19.19.46a79.24,79.24,0,0,1,42.57-4.66l-.94,6,1,.15.65-4.19c9.36.79,18.7,5.37,18.79,5.41Zm-19.24-11c-.57-.08-16.73-2.39-31.7.93L39,19c18.66-4.24,32.31-.39,32.5-.33ZM37.51,13.57c11.16-4.18,27-2.71,35-1.55l-.88,5.69A58,58,0,0,0,58.17,16a80.49,80.49,0,0,0-19.44,2Zm.51,5.7.56,2.09a44,44,0,0,0-11.52,4.39l-1-2.6A82.9,82.9,0,0,1,38,19.27Zm.82,3.05.66,2.43a80.5,80.5,0,0,0-11.42,3.53l-.64-1.6A42.89,42.89,0,0,1,38.84,22.32Zm1.64,2.21-.66-2.43c14.73-3.26,30.68-1,31.29-.9l-.4,2.53A78.22,78.22,0,0,0,40.48,24.53Z"/><path class="cls-1" d="M85.38,34c-.35-.15-8.71-3.64-13.11-3.64v1c4.2,0,12.64,3.52,12.73,3.56Z"/><path class="cls-1" d="M59.91,202a93.36,93.36,0,0,0,21.58-2.83l-.27-1A92.49,92.49,0,0,1,59.4,201v-1.54h-1v1.53L57,200.89l-.05,1,1.49,0v2.51c-2.21,0-4.53,0-6.91-.19l-.08,1c1.92.14,3.79.2,5.6.2l1.39,0v.26h1v-.28a84.86,84.86,0,0,0,18.66-2.57l-.27-1A83.42,83.42,0,0,1,59.4,204.4V202Z"/><path class="cls-1" d="M43.56,206.52l-.13,1a112.16,112.16,0,0,0,14.58.94,114.39,114.39,0,0,0,27.65-3.23l-.27-1A116.7,116.7,0,0,1,43.56,206.52Z"/><path class="cls-1" d="M70.58,211.37l-.1-1c-.21,0-21.19,2-33.86-1.61l-.27,1c6.16,1.74,14.23,2.19,21,2.19C64.67,211.92,70.47,211.38,70.58,211.37Z"/><path class="cls-1" d="M47.13,213.4l-.16,1a75.91,75.91,0,0,0,11.88.89,101.7,101.7,0,0,0,23.89-2.92l-.27-1C82.29,211.45,64.59,216.2,47.13,213.4Z"/><path class="cls-1" d="M24.91,198l-.49.87c4.33,2.39,11.61,4,17,5l-.59,3.42,1,.17.6-3.42c3.24.56,5.59.84,5.84.87l.12-1c-.06,0-2.46-.3-5.79-.87l.9-5.21c2.66.52,4.91.84,6.75,1l-.31,6.33,1,.05.31-6.28c1.63.14,2.88.18,3.76.18s1.41,0,1.52-.05l-.1-1c-.07,0-4.32.35-12.74-1.28l.38-2.22a65.79,65.79,0,0,0,9.48.94v-1a65,65,0,0,1-9.31-.92l.32-1.83a16.84,16.84,0,0,0,4.31.55c.74,0,1.21-.05,1.26-.05l-.1-1a15.86,15.86,0,0,1-5.3-.49l.22-1.28-.49-.09.07-.49c-.15,0-15.76-2.46-24.33-8.17l-.56.83c8,5.33,21.44,7.78,24.24,8.24l-.62,3.61a70.86,70.86,0,0,1-17.43-5.36l-.42.9A72.32,72.32,0,0,0,43,194.47l-.37,2.18c-7.55-1.54-18.2-4.62-32-10.72l-.4.92c13.94,6.17,24.63,9.28,32.2,10.83l-.91,5.22C36.26,202,29.07,200.33,24.91,198Z"/><path class="cls-1" d="M105.15,17.86l-.43.9c29.47,14.07,43,45.59,43.14,45.9l.93-.39C148.65,64,135,32.09,105.15,17.86Z"/></g></g></svg>